<svg width="32" height="32" viewBox="0 0 32 32" fill="none" xmlns="http://www.w3.org/2000/svg">
<path d="M29.3369 9.85128L19.0532 0.412613C18.7154 0.14242 18.3119 0 17.8864 0C17.461 0 17.0566 0.14242 16.7188 0.412613L6.43624 9.82311C5.63034 10.4667 5.4967 11.6422 6.14404 12.4505C6.78559 13.2539 7.96253 13.3907 8.77143 12.7427L17.8864 4.32938L27.0034 12.7718C27.7559 13.3778 29.0172 13.247 29.629 12.4778C30.2754 11.6729 30.1436 10.4956 29.3369 9.85128Z" fill="#008C96"/>
<path d="M27.2348 0.00268555H23.4955C22.9788 0.00268555 22.5606 0.420783 22.5606 0.937546V1.08501L28.1696 6.25838V0.937546C28.1697 0.420783 27.7516 0.00268555 27.2348 0.00268555Z" fill="#008C96"/>
<path d="M2.92936 15.0225H0.935044C0.418343 15.0225 0.000183105 15.4406 0.000183105 15.9573V30.9771C0.000183105 31.4938 0.418281 31.912 0.935044 31.912H2.92936C4.47585 31.912 5.73388 30.6539 5.73388 29.1075V17.827C5.73388 16.2805 4.47591 15.0225 2.92936 15.0225Z" fill="#008C96"/>
<path d="M31.143 17.2475C30.3764 16.6866 29.3107 16.7988 28.675 17.4906L23.6268 23.7727C23.2716 24.1466 22.5985 24.371 22.2433 24.371H14.1475C13.6239 24.371 13.2126 23.9597 13.2126 23.4361C13.2126 22.9125 13.6239 22.5012 14.1475 22.5012C18.3356 22.5012 16.9707 22.5012 21.6262 22.5012C22.6546 22.5012 23.4959 21.6599 23.4959 20.6316C23.4959 19.6032 22.6545 18.7619 21.6262 18.7619C17.2358 18.7619 21.4237 18.7619 16.7277 18.7619C16.2618 18.7619 16.0294 18.4664 15.6619 18.1449C15.101 17.6401 14.4653 17.2662 13.811 17.0044C11.7849 16.177 9.44382 16.4274 7.60364 17.7071C7.60364 21.1111 7.60364 26.1833 7.60364 30.0423H21.6263C23.3838 30.0423 25.0666 29.201 26.1136 27.7987L31.5357 19.8837C32.1526 19.061 31.9843 17.8645 31.143 17.2475Z" fill="#008C96"/>
<path d="M17.8856 6.87549L9.47382 14.6402V14.8939C10.0909 14.7517 10.7199 14.6555 11.3635 14.6555C12.4527 14.6555 13.5135 14.8637 14.5177 15.2735C14.7157 15.3527 14.8933 15.4648 15.0828 15.5581V14.0877C15.0828 13.571 15.5009 13.1528 16.0177 13.1528H19.757C20.2737 13.1528 20.6919 13.5709 20.6919 14.0877V16.8922H21.6268C23.1267 16.8922 24.4231 17.7796 25.0183 19.0567L26.301 17.4606V14.6625L17.8856 6.87549Z" fill="#008C96"/>
<path d="M16.9523 15.0225V16.7906L17.0646 16.8922H18.822V15.0225H16.9523Z" fill="#008C96"/>
</svg>
