<svg width="32" height="32" viewBox="0 0 32 32" fill="none" xmlns="http://www.w3.org/2000/svg">
<path d="M15.6671 7.12131C17.6336 7.12131 19.2278 5.52715 19.2278 3.56066C19.2278 1.59416 17.6336 0 15.6671 0C13.7006 0 12.1064 1.59416 12.1064 3.56066C12.1064 5.52715 13.7006 7.12131 15.6671 7.12131Z" fill="white"/>
<path d="M10.7835 14.2427H20.5504C21.3919 14.2427 22.0762 13.5041 22.0762 12.5959V12.1397C22.0762 10.9498 21.4871 9.86282 20.5378 9.30294C19.4008 8.63251 17.633 7.8335 15.667 7.8335C13.7009 7.8335 11.9331 8.63258 10.7961 9.30294C9.8468 9.86275 9.25775 10.9498 9.25775 12.1397V12.5959C9.25775 13.5042 9.94207 14.2427 10.7835 14.2427Z" fill="white"/>
<path d="M6.40911 24.2125C8.3756 24.2125 9.96976 22.6183 9.96976 20.6518C9.96976 18.6853 8.3756 17.0912 6.40911 17.0912C4.44261 17.0912 2.84845 18.6853 2.84845 20.6518C2.84845 22.6183 4.44261 24.2125 6.40911 24.2125Z" fill="white"/>
<path d="M11.2801 26.3943C10.1431 25.7238 8.37525 24.9248 6.40922 24.9248C4.44319 24.9248 2.67538 25.7239 1.53835 26.3943C0.589047 26.9541 0 28.041 0 29.2309V29.6871C0 30.5954 0.684318 31.334 1.5258 31.334H11.2926C12.1341 31.334 12.8184 30.5954 12.8184 29.6871V29.2309C12.8184 28.041 12.2294 26.9541 11.2801 26.3943Z" fill="white"/>
<path d="M24.9249 24.2125C26.8914 24.2125 28.4856 22.6183 28.4856 20.6518C28.4856 18.6853 26.8914 17.0912 24.9249 17.0912C22.9584 17.0912 21.3643 18.6853 21.3643 20.6518C21.3643 22.6183 22.9584 24.2125 24.9249 24.2125Z" fill="white"/>
<path d="M29.7955 26.3943C28.6585 25.7238 26.8907 24.9248 24.9247 24.9248C22.9586 24.9248 21.1908 25.7239 20.0538 26.3943C19.1045 26.9541 18.5154 28.0411 18.5154 29.231V29.6872C18.5154 30.5954 19.1998 31.334 20.0412 31.334H29.8081C30.6496 31.334 31.3339 30.5954 31.3339 29.6872V29.231C31.3338 28.041 30.7448 26.9541 29.7955 26.3943Z" fill="white"/>
<path d="M19.2264 24.2126C19.4357 24.2126 19.6423 24.1208 19.7835 23.9456C20.029 23.6382 19.9789 23.1903 19.6722 22.9441L16.3786 20.3093V16.3791C16.3786 15.9855 16.0601 15.667 15.6664 15.667C15.2728 15.667 14.9543 15.9854 14.9543 16.3791V20.3097L11.6607 22.9441C11.354 23.1903 11.3039 23.6381 11.5494 23.9455C11.6906 24.1208 11.8971 24.2126 12.1065 24.2126C12.2622 24.2126 12.4194 24.1618 12.5508 24.0568L15.6664 21.5643L18.782 24.0568C18.9134 24.1618 19.0706 24.2126 19.2264 24.2126Z" fill="white"/>
</svg>
