<svg width="19" height="11" viewBox="0 0 19 11" fill="none" xmlns="http://www.w3.org/2000/svg">
<path fill-rule="evenodd" clip-rule="evenodd" d="M4.02746 10.7823C3.16069 10.7812 2.32987 10.4352 1.71776 9.82054C1.10566 9.20588 0.762413 8.37284 0.763534 7.50469L0.767761 4.23132L4.52554 0.477246C4.65788 0.70097 4.81632 0.908125 4.99754 1.09434L5.99413 2.0951L2.94512 5.32525L6.21327 5.32947L6.21187 6.4206C6.21149 6.70998 6.32591 6.98766 6.52994 7.19255C6.73398 7.39744 7.01092 7.51275 7.29984 7.51313L11.6574 7.51875C12.2598 7.51953 12.7474 7.03243 12.7482 6.42904L12.7496 5.33791L16.0177 5.34213L12.9771 2.10411L13.9762 1.10593C14.158 0.920376 14.3173 0.714028 14.4509 0.491153L18.1979 4.25382L18.1937 7.52719C18.1926 8.39534 17.8472 9.22749 17.2335 9.84058C16.6198 10.4537 15.7881 10.7975 14.9213 10.7963L4.02746 10.7823Z" fill="white"/>
</svg>
