<svg width="7" height="10" viewBox="0 0 7 10" fill="none" xmlns="http://www.w3.org/2000/svg">
<path fill-rule="evenodd" clip-rule="evenodd" d="M3.48566 9.05923C3.20677 9.05887 2.92803 8.95158 2.71587 8.73854L0.539924 6.55348C0.388095 6.40044 0.284801 6.20587 0.243016 5.99421C0.201231 5.78256 0.222816 5.56326 0.305063 5.36385C0.387962 5.1648 0.527917 4.99483 0.707237 4.87543C0.886556 4.75603 1.09719 4.69255 1.31252 4.69302L2.40191 4.69443L2.40613 1.42106C2.41384 1.13656 2.53218 0.866329 2.73593 0.667963C2.93969 0.469597 3.21274 0.358787 3.49689 0.359154C3.78104 0.359521 4.05381 0.471036 4.25705 0.669927C4.46029 0.868819 4.57794 1.13936 4.5849 1.42387L4.58068 4.69724L5.67006 4.69865C6.11017 4.69922 6.50854 4.96596 6.67578 5.37317C6.75776 5.57257 6.77891 5.79182 6.73656 6.00325C6.69422 6.21468 6.59027 6.4088 6.43785 6.5611L4.25627 8.74053C4.04356 8.95303 3.76454 9.05959 3.48566 9.05923Z" fill="white"/>
</svg>
