<svg width="30" height="30" viewBox="0 0 30 30" fill="none" xmlns="http://www.w3.org/2000/svg">
<path d="M7.08984 15C7.08984 19.3593 10.6407 22.9102 15 22.9102C19.3593 22.9102 22.9102 19.3593 22.9102 15C22.9102 10.6407 19.3593 7.08984 15 7.08984C10.6407 7.08984 7.08984 10.6407 7.08984 15ZM19.1308 13.8574L14.1211 18.8848L10.8692 15.6152L12.0996 14.3848L14.1211 16.3886L17.9004 12.627L19.1308 13.8574Z" fill="#004750"/>
<path d="M15 30C23.2441 30 30 23.2441 30 15H26.4844C26.4844 21.293 21.293 26.4258 15 26.4258C8.70697 26.4258 3.57422 21.293 3.57422 15C3.57422 8.70697 8.70697 3.57422 15 3.57422C17.5665 3.57422 19.9395 4.41791 21.8379 5.85938L20.502 7.19531L26.707 8.42578L25.4766 2.22064L24.3516 3.34564C21.7852 1.28906 18.5332 0 15 0C6.75586 0 0 6.75586 0 15C0 23.2441 6.75586 30 15 30Z" fill="#004750"/>
</svg>
