<svg width="56" height="56" viewBox="0 0 56 56" fill="none" xmlns="http://www.w3.org/2000/svg">
<path d="M56 28C56 29.6308 55.86 31.2298 55.592 32.7841C55.5187 33.2095 55.4367 33.6317 55.3438 34.0506L53.7064 35.1466C37.9925 45.6597 17.6444 46.2383 1.35844 36.6341C1.35844 36.6341 1.35844 36.6341 1.35734 36.6352C1.19219 36.1255 1.04125 35.6081 0.904531 35.0853C0.707656 34.3306 0.541406 33.5628 0.407969 32.7841C0.248281 31.8631 0.134531 30.9258 0.0689062 29.9753C0.0229688 29.3234 0 28.6639 0 28C0 22.9447 1.33984 18.2033 3.68375 14.1094C8.50937 5.67984 17.5919 0 28 0C38.4081 0 47.4906 5.67984 52.3162 14.1094C53.7359 16.5889 54.787 19.3069 55.3952 22.1878C55.7736 23.9772 55.9803 25.8278 55.9989 27.7244C56 27.8162 56 27.9081 56 28Z" fill="#92EAFF"/>
<path d="M56 28C56 30.077 55.7736 32.1016 55.3438 34.0506L53.7064 35.1466C37.9925 45.6597 17.6444 46.2383 1.35844 36.6341C1.19219 36.1244 1.04125 35.607 0.904531 35.0853C0.315 32.8223 0 30.4478 0 28C0 22.9447 1.33984 18.2033 3.68375 14.1094C8.50937 22.5389 17.5919 28.2188 28 28.2188C38.4081 28.2188 47.4906 22.5389 52.3162 14.1094C54.6602 18.2033 56 22.9447 56 28Z" fill="#63DBFA"/>
<path d="M52.7842 41.042C51.6522 43.1879 50.2511 45.1698 48.6236 46.9395C48.3381 47.2501 48.0417 47.5564 47.7355 47.8571C44.0244 51.5037 38.8728 54.3606 33.5386 55.45C33.2728 55.5047 33.007 55.5539 32.7412 55.5998C31.2002 55.8634 29.6164 56.0001 28.0009 56.0001H27.9102C26.3253 55.9947 24.7722 55.8579 23.2606 55.5998C22.9938 55.5539 22.7269 55.5046 22.4622 55.4521C16.9781 54.3529 12.0759 51.6503 8.25984 47.8571C7.91641 47.5159 7.58172 47.1648 7.25578 46.8061C5.68078 45.0692 4.32016 43.1343 3.21875 41.042H52.7842Z" fill="#6CDC2D"/>
<path d="M52.7842 41.042C51.6522 43.1879 50.2511 45.1698 48.6236 46.9395C48.3381 47.2501 48.0417 47.5564 47.7355 47.8571H8.25984C7.91641 47.5159 7.58172 47.1648 7.25578 46.8061C5.68078 45.0692 4.32016 43.1343 3.21875 41.042H52.7842Z" fill="#B6E337"/>
<path d="M33.5373 55.45C33.2716 55.5047 33.0058 55.5539 32.74 55.5998C31.1989 55.8634 29.6152 56.0001 27.9997 56.0001H27.9089C26.3241 55.9947 24.7709 55.8579 23.2594 55.5998C22.9925 55.5539 22.7256 55.5046 22.4609 55.4521L25.4359 41.042H30.5634L33.5373 55.45Z" fill="#7E7F92"/>
<path d="M33.5396 55.45C33.2738 55.5047 33.008 55.5539 32.7423 55.5998C31.2012 55.8634 29.6174 56.0001 28.002 56.0001V41.042H30.5657L33.5396 55.45Z" fill="#6E6F83"/>
<path d="M28.83 55.9892C28.5544 55.9961 28.2788 56.0001 28.0009 56.0001C27.7231 56.0001 27.4475 55.9961 27.1719 55.9892L27.2889 52.345H28.713L28.83 55.9892Z" fill="white"/>
<path d="M28.831 55.9892C28.5554 55.9961 28.2798 56.0001 28.002 56.0001V52.345H28.714L28.831 55.9892Z" fill="#D0F6FF"/>
<path d="M27.9991 17.9333V41.042H20.8438V12.3901L24.4203 15.1606L27.9991 17.9333Z" fill="white"/>
<path d="M28.0006 17.9333V41.042H24.4219V15.1606L28.0006 17.9333Z" fill="#DFF7FD"/>
<path d="M28.002 26.2739H35.2688V41.0417H28.002V26.2739Z" fill="#FFFCE4"/>
<path d="M12.4183 32.5403V41.042H3.21875C2.47828 39.6387 1.85375 38.1654 1.35938 36.6342V36.2022C1.35938 34.1798 2.99891 32.5403 5.02125 32.5403H12.4183Z" fill="#65B2FE"/>
<path d="M12.4164 32.5403V41.042H5.64062V36.2022C5.64062 34.1798 7.28016 32.5403 9.3025 32.5403H12.4164Z" fill="#159DE4"/>
<path d="M16.008 22.998V41.0417H8.74219V26.848L12.3756 24.923L16.008 22.998Z" fill="white"/>
<path d="M16.0073 22.998V41.0417H12.375V24.923L16.0073 22.998Z" fill="#DFF7FD"/>
<path d="M55.3452 29.488V34.0511C55.2686 34.3989 55.1855 34.7434 55.0958 35.0858C54.5511 37.1759 53.7712 39.172 52.7847 41.0423H47.4844V23.1267L51.4153 24.9226L52.8241 25.5658C54.3597 26.2669 55.3452 27.7992 55.3452 29.488Z" fill="#65B2FE"/>
<path d="M55.3439 29.4877V34.0508C55.2673 34.3986 55.1842 34.7431 55.0945 35.0855C54.5498 37.1756 53.77 39.1717 52.7834 41.042H51.4141V24.9224L52.8228 25.5655C54.3584 26.2666 55.3439 27.7989 55.3439 29.4877Z" fill="#159DE4"/>
<path d="M47.4844 19.4304H48.7619V29.5071H47.4844V19.4304Z" fill="#6E6F83"/>
<path d="M48.123 19.4304H48.7618V29.5071H48.123V19.4304Z" fill="#605F74"/>
<path d="M55.3452 29.488C55.3452 29.488 53.6302 29.4978 51.4153 29.5076C50.1892 29.512 48.81 29.5164 47.4844 29.5197V23.1267L51.4153 24.9226L52.8241 25.5658C54.3597 26.2669 55.3452 27.7992 55.3452 29.488Z" fill="white"/>
<path d="M40.218 16.0879V41.0419H35.2676V21.0383C35.2676 18.3043 37.484 16.0879 40.218 16.0879Z" fill="white"/>
<path d="M40.2175 16.0879V41.0419H37.7422V21.0383C37.7422 18.3043 38.8505 16.0879 40.2175 16.0879Z" fill="#DFF7FD"/>
<path d="M31.6348 26.2739H35.2679V41.0417H31.6348V26.2739Z" fill="#F3E6D0"/>
<path d="M16.0078 31.2107H20.8451V41.042H16.0078V31.2107Z" fill="#FFFCE4"/>
<path d="M18.4277 31.2107H20.8465V41.042H18.4277V31.2107Z" fill="#F3E6D0"/>
<path d="M40.2168 30.8108H47.4831V41.0424H40.2168V30.8108Z" fill="#FFFCE4"/>
<path d="M43.8496 30.8108H47.4827V41.0424H43.8496V30.8108Z" fill="#F3E6D0"/>
<path d="M43.2109 23.7971H44.4884V30.1245H43.2109V23.7971Z" fill="white"/>
<path d="M43.8496 23.7971H44.4884V30.1245H43.8496V23.7971Z" fill="#DFF7FD"/>
<path d="M40.2188 29.4382H48.563V30.8098H40.2188V29.4382Z" fill="#7E7F92"/>
<path d="M27.9991 17.9333V21.0942H20.8438V12.3901L24.4203 15.1606L27.9991 17.9333Z" fill="#65B2FE"/>
<path d="M30.6914 8.82551C30.7133 8.76863 30.7395 8.75223 30.7691 8.78176C30.7997 8.81238 30.7723 8.8266 30.6914 8.82551Z" fill="#F3E6D0"/>
<path d="M28.0006 17.9333V21.0942H24.4219V15.1606L28.0006 17.9333Z" fill="#159DE4"/>
<path d="M13.4922 37.8931H20.8446V41.0418H13.4922V37.8931Z" fill="#65B2FE"/>
<path d="M53.8668 38.7375C53.5398 39.525 53.1777 40.294 52.7818 41.0421H30.5645C30.5645 39.77 31.5959 38.7375 32.869 38.7375H53.8668Z" fill="white"/>
<path d="M55.3439 29.4877C55.3439 29.4877 53.6289 29.4975 51.4141 29.5074V24.9224L52.8228 25.5655C54.3584 26.2666 55.3439 27.7989 55.3439 29.4877Z" fill="#DFF7FD"/>
<path d="M16.008 22.998V26.848H8.74219L12.3756 24.923L16.008 22.998Z" fill="#65B2FE"/>
<path d="M16.0073 22.998V26.848H12.375V24.923L16.0073 22.998Z" fill="#159DE4"/>
<path d="M43.8496 29.4382H48.5615V30.8098H43.8496V29.4382Z" fill="#6E6F83"/>
<path d="M28.4695 44.8096H27.5332L27.6546 41.042H28.348L28.4695 44.8096Z" fill="white"/>
<path d="M28.6512 50.4607H27.3496L27.4841 46.3042H28.5166L28.6512 50.4607Z" fill="white"/>
<path d="M28.4701 44.8096H28.002V41.042H28.3487L28.4701 44.8096Z" fill="#D0F6FF"/>
<path d="M28.6527 50.4607H28.002V46.3042H28.5182L28.6527 50.4607Z" fill="#D0F6FF"/>
<path d="M20.108 18.8699C20.1081 18.8598 20.1087 18.85 20.1087 18.84C20.1087 17.0098 18.6251 15.5262 16.7949 15.5262C16.3601 15.5262 15.9453 15.6107 15.5649 15.763C14.83 14.4465 13.424 13.5557 11.8091 13.5557C9.7122 13.5557 7.9668 15.0574 7.58748 17.0439C7.47439 17.0277 7.35889 17.0188 7.24131 17.0188C6.10119 17.0188 5.14602 17.8081 4.89062 18.8699H20.108Z" fill="white"/>
<path d="M16.8753 18.8702C16.8753 18.8644 16.8758 18.8588 16.8758 18.853C16.8758 17.8006 16.0226 16.9475 14.9702 16.9475C14.7202 16.9475 14.4817 16.9961 14.2629 17.0836C13.8404 16.3267 13.0318 15.8145 12.1033 15.8145C10.8975 15.8145 9.89392 16.678 9.67572 17.8203C9.61064 17.811 9.54436 17.8058 9.47666 17.8058C8.82106 17.8058 8.27178 18.2596 8.125 18.8703H16.8753V18.8702Z" fill="#DFF7FD"/>
<path d="M33.1907 8.78384C33.1907 8.77695 33.1912 8.77028 33.1912 8.7635C33.1912 7.51509 32.1792 6.50305 30.9308 6.50305C30.6341 6.50305 30.3512 6.56079 30.0918 6.66459C29.5905 5.76662 28.6314 5.15894 27.5299 5.15894C26.0995 5.15894 24.9089 6.18334 24.6501 7.53828C24.573 7.52723 24.4943 7.52122 24.414 7.52122C23.6363 7.52122 22.9847 8.05956 22.8105 8.78384H33.1907Z" fill="white"/>
<path d="M30.9844 8.78393C30.9844 8.77999 30.9848 8.77617 30.9848 8.77223C30.9848 8.0544 30.4028 7.47242 29.685 7.47242C29.5144 7.47242 29.3517 7.50556 29.2025 7.56528C28.9143 7.04892 28.3627 6.69946 27.7293 6.69946C26.9068 6.69946 26.2223 7.28845 26.0734 8.06764C26.029 8.06129 25.9837 8.05779 25.9377 8.05779C25.4904 8.05779 25.1158 8.36732 25.0156 8.78382H30.9844V8.78393Z" fill="#DFF7FD"/>
<path d="M49.6793 13.9076C49.6793 13.8996 49.6798 13.8919 49.6798 13.8839C49.6798 12.4268 48.4987 11.2457 47.0416 11.2457C46.6954 11.2457 46.3652 11.313 46.0623 11.4342C45.4773 10.3862 44.358 9.677 43.0724 9.677C41.4029 9.677 40.0135 10.8726 39.7114 12.454C39.6214 12.4411 39.5294 12.4341 39.4359 12.4341C38.5282 12.4341 37.7677 13.0625 37.5645 13.9077H49.6793V13.9076Z" fill="white"/>
<path d="M47.1069 13.9076C47.1069 13.903 47.1073 13.8985 47.1073 13.8939C47.1073 13.0561 46.428 12.3769 45.5902 12.3769C45.3912 12.3769 45.2013 12.4156 45.0272 12.4853C44.6907 11.8826 44.0471 11.4749 43.3079 11.4749C42.3479 11.4749 41.5489 12.1623 41.3752 13.0717C41.3235 13.0643 41.2706 13.0602 41.2168 13.0602C40.6948 13.0602 40.2575 13.4215 40.1406 13.9076H47.1069Z" fill="#DFF7FD"/>
<path d="M28.002 26.0862H35.2688V27.5245H28.002V26.0862Z" fill="#65B2FE"/>
<path d="M31.6348 26.0862H35.2682V27.5245H31.6348V26.0862Z" fill="#159DE4"/>
<path d="M29.2148 28.8005H34.0514V30.2388H29.2148V28.8005Z" fill="#605F74"/>
<path d="M31.6348 28.8005H34.053V30.2388H31.6348V28.8005Z" fill="#58586B"/>
<path d="M29.2148 31.3647H34.0514V32.803H29.2148V31.3647Z" fill="#605F74"/>
<path d="M31.6348 31.3647H34.053V32.803H31.6348V31.3647Z" fill="#58586B"/>
<path d="M29.2148 33.9299H34.0514V35.3682H29.2148V33.9299Z" fill="#605F74"/>
<path d="M31.6348 33.9299H34.053V35.3682H31.6348V33.9299Z" fill="#58586B"/>
<path d="M21.7305 23.1736H23.5252V24.9683H21.7305V23.1736Z" fill="#7E7F92"/>
<path d="M23.5254 23.1736H25.3201V24.9683H23.5254V23.1736Z" fill="#605F74"/>
<path d="M25.3203 23.1736H27.115V24.9683H25.3203V23.1736Z" fill="#605F74"/>
<path d="M21.7305 24.9683H23.5252V26.763H21.7305V24.9683Z" fill="#58586B"/>
<path d="M23.5254 24.9688H25.3201V26.7635H23.5254V24.9688Z" fill="#605F74"/>
<path d="M25.3203 24.9688H27.115V26.7635H25.3203V24.9688Z" fill="#605F74"/>
<path d="M21.7305 26.7632H23.5252V28.5579H21.7305V26.7632Z" fill="#605F74"/>
<path d="M23.5254 26.7632H25.3201V28.5579H23.5254V26.7632Z" fill="#7E7F92"/>
<path d="M25.3203 26.7632H27.115V28.5579H25.3203V26.7632Z" fill="#605F74"/>
<path d="M21.7305 28.5576H23.5252V30.3524H21.7305V28.5576Z" fill="#605F74"/>
<path d="M23.5254 28.5576H25.3201V30.3524H23.5254V28.5576Z" fill="#58586B"/>
<path d="M25.3203 28.5576H27.115V30.3524H25.3203V28.5576Z" fill="#7E7F92"/>
<path d="M21.7305 30.3528H23.5252V32.1475H21.7305V30.3528Z" fill="#7E7F92"/>
<path d="M23.5254 30.3528H25.3201V32.1475H23.5254V30.3528Z" fill="#58586B"/>
<path d="M25.3203 30.3528H27.115V32.1475H25.3203V30.3528Z" fill="#605F74"/>
<path d="M21.7305 32.1472H23.5252V33.942H21.7305V32.1472Z" fill="#7E7F92"/>
<path d="M23.5254 32.1472H25.3201V33.942H23.5254V32.1472Z" fill="#605F74"/>
<path d="M25.3203 32.1472H27.115V33.942H25.3203V32.1472Z" fill="#58586B"/>
<path d="M21.7305 33.9421H23.5252V35.7369H21.7305V33.9421Z" fill="#605F74"/>
<path d="M23.5254 33.9421H25.3201V35.7369H23.5254V33.9421Z" fill="#7E7F92"/>
<path d="M25.3203 33.9421H27.115V35.7369H25.3203V33.9421Z" fill="#58586B"/>
<path d="M21.7305 35.7368H23.5252V37.5316H21.7305V35.7368Z" fill="#605F74"/>
<path d="M23.5254 35.7368H25.3201V37.5316H23.5254V35.7368Z" fill="#605F74"/>
<path d="M25.3203 35.7368H27.115V37.5316H25.3203V35.7368Z" fill="#7E7F92"/>
<path d="M21.7305 37.5317H23.5252V39.3265H21.7305V37.5317Z" fill="#7E7F92"/>
<path d="M23.5254 37.5317H25.3201V39.3265H23.5254V37.5317Z" fill="#605F74"/>
<path d="M25.3203 37.5317H27.115V39.3265H25.3203V37.5317Z" fill="#605F74"/>
</svg>
