<svg width="56" height="56" viewBox="0 0 56 56" fill="none" xmlns="http://www.w3.org/2000/svg">
<path d="M56 28C56 43.464 43.464 56 28 56C12.536 56 0 43.464 0 28C0 12.536 12.536 0 28 0C43.464 0 56 12.536 56 28Z" fill="#3493F8"/>
<path d="M41.7539 23.8301C41.7539 33.7292 33.7292 41.7539 23.8301 41.7539C13.931 41.7539 5.90625 33.7292 5.90625 23.8301C5.90625 13.931 13.931 5.90625 23.8301 5.90625C33.7292 5.90625 41.7539 13.931 41.7539 23.8301Z" fill="#55A4F9"/>
<path d="M17.4015 18.0991L12.007 18.1063L11.9922 9.4014C11.9919 9.15784 12.1977 8.96021 12.452 8.95981L16.9255 8.95386C17.1799 8.95356 17.3863 9.15069 17.3867 9.39416L17.4015 18.0991Z" fill="#FFB125"/>
<path d="M17.3875 9.39416C17.3872 9.15059 17.1807 8.95346 16.9263 8.95386L14.2592 8.95743C14.4957 8.97568 14.6825 9.163 14.6828 9.39416L14.6977 18.099L12.0078 18.1026V18.1061L17.4023 18.0989L17.3875 9.39416Z" fill="#FF901D"/>
<path d="M26.3214 8.79614L11.8711 21.8313L11.9 41.6477C11.9007 42.1705 12.344 42.5936 12.8899 42.5929L39.8513 42.5569C40.3972 42.5562 40.8391 42.1318 40.8384 41.609L40.8095 21.7926L26.3214 8.79614Z" fill="#E1EFFB"/>
<path d="M40.8103 21.7926L26.3222 8.79614L23.9395 10.9456L36.0314 21.7925L36.0603 41.6089C36.0611 42.1317 35.6192 42.556 35.0733 42.5568H39.8521C40.398 42.556 40.84 42.1317 40.8392 41.6089L40.8103 21.7926Z" fill="#CCDFED"/>
<path d="M45.9083 26.1593C45.4205 26.16 44.9315 25.9896 44.5474 25.6451L26.3231 9.29727L8.14656 25.6938C7.34775 26.4145 6.08996 26.3784 5.33767 25.6135C4.58507 24.8486 4.62258 23.6444 5.42149 22.9238L24.9567 5.30152C25.7204 4.61249 26.9121 4.6109 27.6778 5.29785L47.2644 22.8677C48.0654 23.5861 48.1064 24.7904 47.356 25.5573C46.9655 25.9564 46.4376 26.1585 45.9083 26.1593Z" fill="#FF4C4C"/>
<path d="M47.3549 23.2684C46.9644 23.6674 46.4365 23.8696 45.9071 23.8703C45.4193 23.8709 44.9303 23.7007 44.5462 23.3561L26.322 7.0083L8.14547 23.4047C7.34666 24.1254 6.08887 24.0894 5.33658 23.3245C5.28623 23.2734 5.24012 23.22 5.19681 23.1652C4.62428 23.892 4.66262 24.9283 5.33658 25.6132C6.08887 26.3781 7.34666 26.4141 8.14547 25.6934L26.322 9.29702L44.5462 25.6448C44.9303 25.9894 45.4194 26.1596 45.9071 26.159C46.4365 26.1583 46.9644 25.9561 47.3549 25.5571C48.0254 24.8718 48.0621 23.8381 47.491 23.113C47.449 23.1664 47.4038 23.2184 47.3549 23.2684Z" fill="#F33939"/>
<path d="M30.0606 25.1323L22.6322 25.1422C22.2837 25.1427 22.0015 25.4137 22.002 25.7474L22.0265 42.5803L30.7172 42.5687L30.6926 25.7358C30.6921 25.402 30.4091 25.1318 30.0606 25.1323Z" fill="#2D5871"/>
<path d="M30.6922 25.7358C30.6917 25.4021 30.4087 25.1318 30.0602 25.1323L25.8633 25.138C26.1193 25.2147 26.3054 25.4434 26.3058 25.7139L26.3303 42.5745L30.7167 42.5687L30.6922 25.7358Z" fill="#1D4859"/>
<path d="M49.0149 34.0722L38.0659 41.0889L34.8028 40.9136L34.675 39.6837C34.4849 37.8529 33.0129 36.3836 31.1105 36.1259L22.3678 35.1619C20.351 34.8887 18.4092 34.2415 16.651 33.2567C14.2507 31.912 11.5199 31.2034 8.73899 31.2034H2.43555V44.9813L19.0951 51.0224C19.7248 51.1926 20.386 51.2435 21.0322 51.1458C21.036 51.1452 21.0399 51.1446 21.0438 51.144L37.8161 48.8289C39.1082 48.6314 40.3229 48.1102 41.3369 47.3183L52.177 37.9824C53.1499 37.1552 53.3303 35.7649 52.5983 34.7349C51.7974 33.6081 50.1964 33.3119 49.0149 34.0722Z" fill="#FED9A8"/>
<path d="M52.7413 34.9641L42.0267 43.6007C41.0127 44.3926 39.327 44.9138 38.0349 45.1113L21.0439 46.2743C21.04 46.2749 21.0361 46.2755 21.0323 46.2761C20.3861 46.374 19.7248 46.323 19.0952 46.1527L2.43555 40.1116V44.9816L19.0951 51.0227C19.4099 51.1078 19.7326 51.1631 20.0574 51.1849C20.1387 51.1904 20.22 51.1938 20.3013 51.1949C20.5454 51.1985 20.7898 51.1828 21.0322 51.1461C21.036 51.1455 21.0399 51.1449 21.0438 51.1443L37.8161 48.8292C38.2198 48.7675 38.6161 48.6742 39.0009 48.5509C39.0779 48.5261 39.1545 48.5004 39.2305 48.4733C39.6108 48.338 39.9789 48.1731 40.3311 47.9801C40.4016 47.9415 40.4714 47.9018 40.5406 47.8609C40.8173 47.6976 41.0833 47.5166 41.3369 47.3185L52.177 37.9826C53.0797 37.2152 53.2987 35.9636 52.7413 34.9641Z" fill="#F4C892"/>
<path d="M36.0724 40.9843L17.6166 40.2771C17.5285 40.2737 17.4427 40.2489 17.3675 40.205L16.3872 39.6331C15.9104 39.355 16.166 38.6509 16.7201 38.7159L36.0724 40.9843Z" fill="#F4C892"/>
<path d="M4.55995 49.6613H2.06592C0.924899 49.6613 0 48.7755 0 47.683V30.0095C0 28.9169 0.925003 28.0312 2.06592 28.0312H4.55995C5.70097 28.0312 6.62587 28.917 6.62587 30.0095V47.683C6.62587 48.7756 5.70097 49.6613 4.55995 49.6613Z" fill="#2D5871"/>
<path d="M4.55973 28.0312H2.0657C1.92542 28.0312 1.78866 28.0449 1.65625 28.0704C2.60104 28.2524 3.31272 29.0512 3.31272 30.0095V47.683C3.31272 48.6413 2.60104 49.4401 1.65625 49.6221C1.78866 49.6476 1.92552 49.6613 2.0657 49.6613H4.55973C5.70075 49.6613 6.62565 48.7755 6.62565 47.683V30.0095C6.62565 28.917 5.70075 28.0312 4.55973 28.0312Z" fill="#1D4859"/>
</svg>
