<svg width="56" height="59" viewBox="0 0 56 59" fill="none" xmlns="http://www.w3.org/2000/svg">
<path d="M51.093 46.35C54.1875 41.8458 56 36.3922 56 30.5145C56 15.0505 43.4639 2.5144 27.9999 2.5144C12.536 2.5144 0 15.0505 0 30.5145C0 36.3947 1.81407 41.8506 4.91112 46.3559L51.093 46.35Z" fill="#EA501B"/>
<path d="M27.8495 2.11792C21.3508 2.11792 16.0638 7.40492 16.0638 13.9036C16.0789 14.1299 16.022 14.2523 16.1355 14.3341C16.2867 14.443 16.3768 14.6187 16.3768 14.8039V15.4718C16.3768 16.0779 17.0942 16.383 17.1895 16.0869C17.4303 15.339 18.0965 15.2758 18.3758 15.2805C18.384 15.2806 18.3922 15.2811 18.4007 15.2806C18.6307 15.2815 18.8531 15.3506 19.0443 15.4804C19.1378 15.5444 19.2701 15.5013 19.3055 15.3899C19.4106 15.0566 19.4463 14.7193 19.423 14.4033C19.3013 12.7455 19.3916 9.83225 21.3638 8.94471C23.1243 8.15167 24.897 8.70127 26.0621 8.92448C26.7205 9.11613 27.8051 9.57728 29.3259 9.07145C30.7562 8.59567 32.8146 8.18744 34.4979 8.94459C36.4663 9.83054 36.5592 12.7364 36.4393 14.3899C36.4174 14.6948 36.4485 15.0017 36.5316 15.3018C36.5608 15.4077 36.6805 15.4588 36.7766 15.4091C37.3859 15.0956 38.2685 15.3395 38.5094 16.0868C38.5358 16.169 38.6186 16.2182 38.7035 16.2037C39.0619 16.1403 39.3221 15.8325 39.3221 15.4717V14.8038C39.3221 14.6187 39.4123 14.443 39.5635 14.334C39.6773 14.2519 39.6202 14.1276 39.6351 13.9035C39.6351 7.40492 34.3481 2.11792 27.8495 2.11792Z" fill="#41416B"/>
<path d="M27.5221 2.50497C27.6487 2.41697 27.6864 2.25594 27.6308 2.12085C21.2327 2.23788 16.0638 7.47814 16.0638 13.9037C16.0789 14.13 16.022 14.2524 16.1355 14.3342C16.2867 14.4431 16.3768 14.6188 16.3768 14.804V15.4719C16.3768 16.078 17.0942 16.3831 17.1895 16.087C17.4303 15.3391 18.0965 15.2759 18.3758 15.2806C18.384 15.2807 18.3922 15.2812 18.4007 15.2807C18.6307 15.2816 18.8531 15.3506 19.0443 15.4805C19.1378 15.5446 19.2701 15.5014 19.3055 15.39C19.4106 15.0567 19.4463 14.7193 19.423 14.4033C19.3013 12.7456 19.3916 9.83233 21.3638 8.94478C23.1059 8.16009 24.8595 8.68981 26.025 8.91723L26.1026 8.75678C26.1027 8.75678 23.8741 5.04155 27.5221 2.50497Z" fill="#35355E"/>
<path d="M4.83203 46.2419C9.87012 53.6491 18.3666 58.5148 28.0002 58.5148C37.6363 58.5148 46.1348 53.6466 51.1724 46.2359C50.4824 44.0334 49.2097 41.878 46.8932 40.6855L46.8939 40.6839C46.7379 40.6096 46.53 40.5003 46.1687 40.3587C38.7369 37.055 37.8806 37.2031 37.1272 36.9517C37.1499 36.9741 37.1703 36.9989 37.1854 37.0288C37.1587 37.2517 37.3016 37.2151 36.7782 38.5607C35.6933 41.2528 33.7206 43.6171 31.4345 45.4249C31.2035 45.6073 30.884 45.6194 30.6392 45.4559C30.2449 45.1926 29.5509 47.6796 29.5885 48.3853C29.6018 48.8088 29.5918 48.305 29.5953 54.0587C29.5953 54.2855 29.4075 54.4699 29.1766 54.4699C29.1573 54.4699 26.7572 54.4699 26.8301 54.4699C26.5994 54.4699 26.4115 54.2855 26.4115 54.0587C26.415 48.3051 26.405 48.8082 26.4182 48.3853C26.4186 48.3803 26.4183 48.3752 26.418 48.3702C26.3214 47.1261 25.7239 45.218 25.3676 45.4559C25.1228 45.6195 24.8032 45.6073 24.5723 45.4249C22.2862 43.617 20.3135 41.2528 19.2286 38.5607C18.705 37.2151 18.848 37.2517 18.8214 37.0288C18.8365 36.9989 18.8568 36.9741 18.8794 36.9517C18.1261 37.2031 17.2698 37.055 9.83801 40.3587C9.47675 40.5003 9.26874 40.6095 9.11274 40.6839L9.11354 40.6855C6.79479 41.879 5.52186 44.0373 4.83203 46.2419Z" fill="#FFDD40"/>
<path d="M18.821 37.0288C18.8361 36.9989 18.8563 36.9741 18.8791 36.9517C18.1257 37.2031 17.2695 37.055 9.83766 40.3587C9.4764 40.5003 9.2684 40.6095 9.1124 40.6839L9.1132 40.6855C6.79479 41.879 5.52186 44.0373 4.83203 46.2419C6.70016 48.9885 9.0436 51.3857 11.7446 53.3148L12.6473 50.3363C13.0325 49.065 13.9355 48.0148 15.1346 47.4434L21.8116 44.2615V42.7654C20.7365 41.4957 19.8408 40.0805 19.2283 38.5606C18.7046 37.2151 18.8475 37.2517 18.821 37.0288Z" fill="#FFC839"/>
<path d="M21.1246 35.0543L21.2492 35.7403L21.2531 35.7565C21.2892 35.9143 21.3302 36.073 21.3752 36.2284L21.3821 36.252C21.3971 36.3037 21.4131 36.3564 21.4292 36.4081L21.439 36.4395C21.4563 36.4937 21.4741 36.5487 21.4934 36.6063L21.5 36.6251C21.9104 37.8305 22.8069 39.5873 24.746 41.1115C25.2487 41.5068 25.7979 41.87 26.3786 42.1911C26.6394 42.3353 26.8295 42.5546 26.9282 42.8254C26.9347 42.8433 26.9447 42.8599 26.9574 42.8743C27.2551 43.2094 27.5395 43.5777 27.8028 43.9691C27.8596 44.0532 27.9992 44.0532 28.0556 43.9691C28.3178 43.579 28.6031 43.2101 28.9031 42.8727C28.9159 42.8584 28.9257 42.8418 28.9322 42.8239C29.0314 42.5537 29.2211 42.3349 29.481 42.1911C33.651 39.8847 34.5477 36.485 34.7385 35.0295C34.2281 33.8609 34.0652 32.4163 34.027 31.3074C33.4111 32.0247 32.7648 32.6246 32.1472 33.1043C30.944 34.0387 29.4592 34.5461 27.9299 34.5461C26.4007 34.5461 24.9159 34.0386 23.7127 33.1043C23.095 32.6246 22.4486 32.0247 21.8328 31.3074C21.7946 32.4163 21.6315 33.861 21.1211 35.0296L21.1246 35.0543Z" fill="#FCA870"/>
<path d="M23.7127 33.1043C23.095 32.6246 22.4486 32.0247 21.8328 31.3074C21.7946 32.4163 21.6315 33.861 21.1211 35.0296L21.1242 35.0544L21.2488 35.7404L21.2526 35.7567C21.2888 35.9144 21.3298 36.0731 21.3747 36.2285L21.3817 36.2521C21.3966 36.3039 21.4125 36.3565 21.4288 36.4082L21.4386 36.4396C21.4558 36.4938 21.4737 36.5488 21.493 36.6063L21.4995 36.6251C21.9099 37.8305 22.8065 39.5873 24.7456 41.1115C24.9036 41.2359 25.0679 41.3557 25.2347 41.4734C26.9351 38.61 27.4807 35.9507 27.6558 34.5405C26.224 34.4836 24.8439 33.9827 23.7127 33.1043Z" fill="#F9955F"/>
<path d="M37.4107 16.7628C37.2903 16.4484 37.1467 16.1596 36.984 15.9043C36.7057 15.4678 36.5738 14.9344 36.6123 14.4023C36.7354 12.7039 36.6336 9.71633 34.5696 8.78752C32.8361 8.00775 30.7321 8.42249 29.2724 8.90798C28.4078 9.19575 27.4556 9.19564 26.591 8.90798C25.1312 8.42249 23.0273 8.00729 21.2938 8.78752C20.4062 9.18695 18.9607 10.4494 19.252 14.4159C19.2904 14.9384 19.1581 15.4671 18.8794 15.9045C18.7214 16.1524 18.5812 16.4321 18.4631 16.7357C18.1169 17.6251 18.0049 18.612 18.1391 19.5901L18.6232 23.1108C18.6232 28.9416 22.151 32.3103 23.6677 33.4881C24.8782 34.4284 26.3926 34.9462 27.9317 34.9462C29.4707 34.9462 30.9851 34.4285 32.1956 33.4881C33.7123 32.3104 37.2401 28.9415 37.2393 23.1213L37.7241 19.5909C37.8571 18.6226 37.7488 17.6446 37.4107 16.7628Z" fill="#F9BD91"/>
<path d="M27.7387 33.4882C26.6597 32.3105 24.1502 28.9417 24.1502 23.1109L23.8058 19.5902C23.7103 18.6121 23.79 17.6252 24.0362 16.7358C24.1204 16.4321 24.22 16.1524 24.3325 15.9045C24.5308 15.4671 24.6248 14.9385 24.5975 14.4159C24.3903 10.4494 25.4185 9.18695 26.05 8.78751C26.067 8.77677 26.0843 8.76706 26.1014 8.75666C24.6848 8.34763 22.8406 8.09037 21.2918 8.78751C20.4042 9.18695 18.9587 10.4494 19.25 14.4159C19.2884 14.9384 19.1561 15.4671 18.8775 15.9045C18.7194 16.1524 18.5793 16.4321 18.4611 16.7358C18.115 17.6252 18.003 18.6121 18.1371 19.5902L18.6212 23.1109C18.6212 28.9417 22.149 32.3104 23.6657 33.4882C24.8762 34.4285 26.3907 34.9463 27.9298 34.9463C28.4912 34.9463 29.0492 34.8766 29.5906 34.7434C28.9199 34.5116 28.2856 34.0855 27.7387 33.4882Z" fill="#FCA870"/>
<path d="M28.0391 44.0464C27.208 42.7619 26.3886 42.0874 26.3886 42.0874L24.2715 45.4878C25.7966 46.4695 26.0691 48.8678 26.1177 49.6405C26.2442 47.1571 27.1846 45.2699 28.0391 44.0464Z" fill="#FF9100"/>
<path d="M29.7336 54.5939V49.8856C29.7336 49.8856 29.7601 46.6655 31.5904 45.4875L29.4732 42.0872C29.4732 42.0872 26.0996 44.8592 26.0996 49.8857V54.594H29.7336V54.5939Z" fill="#FFB332"/>
<path d="M26.4506 42.0578C22.2283 39.7226 21.4145 36.2459 21.2583 34.9143C21.2307 34.6785 20.9577 34.5619 20.7662 34.7023L17.9082 36.7978C17.7556 36.9097 17.6824 37.1027 17.7285 37.286C18.8656 41.8122 22.5212 45.117 24.1326 46.3911C24.5428 46.7154 25.141 46.6214 25.4329 46.1876C25.8457 45.5741 26.4296 44.7064 26.9115 43.9903C27.3614 43.3216 27.1559 42.4479 26.4506 42.0578Z" fill="#FFC839"/>
<path d="M24.8404 40.9916C22.0125 38.7688 21.394 36.0546 21.2603 34.914C21.2326 34.6782 20.9596 34.5616 20.7682 34.7021L17.9101 36.7975C17.7575 36.9094 17.6844 37.1025 17.7304 37.2859C18.4581 40.1824 20.2167 42.5773 21.8114 44.2612C23.0773 40.1053 24.4893 40.749 24.8404 40.9916Z" fill="#FFB332"/>
<path d="M37.9487 36.7978L35.0906 34.7023C34.8992 34.5619 34.6262 34.6785 34.5985 34.9143C34.4424 36.2459 33.6286 39.7226 29.4063 42.0578C28.701 42.4479 28.4954 43.3216 28.9455 43.9903C29.4273 44.7064 30.0112 45.5741 30.4241 46.1876C30.716 46.6214 31.3143 46.7153 31.7243 46.3911C33.3358 45.117 36.9913 41.8122 38.1284 37.286C38.1744 37.1026 38.1013 36.9096 37.9487 36.7978Z" fill="#FFC839"/>
<path d="M28.8029 48.513C28.8029 48.9073 28.4833 49.227 28.0889 49.227C27.6947 49.227 27.375 48.9073 27.375 48.513C27.375 48.1187 27.6947 47.7991 28.0889 47.7991C28.4833 47.7991 28.8029 48.1187 28.8029 48.513Z" fill="#FFC839"/>
<path d="M28.6447 52.0543C28.6447 52.4486 28.325 52.7682 27.9307 52.7682C27.5365 52.7682 27.2168 52.4486 27.2168 52.0543C27.2168 51.66 27.5365 51.3403 27.9307 51.3403C28.325 51.3403 28.6447 51.66 28.6447 52.0543Z" fill="#FFC839"/>
<path d="M26.0996 54.4346V55.7685C26.0996 56.1025 26.3739 56.3731 26.7122 56.3731H29.1211C29.4594 56.3731 29.7337 56.1025 29.7337 55.7685V54.4346H26.0996Z" fill="#FF9100"/>
<path d="M27.8479 0C20.3035 0 14.1875 6.11592 14.1875 13.6603V15.2842H16.2346V13.9036C16.2346 7.48987 21.4341 2.29041 27.8478 2.29041C34.2617 2.29041 39.4611 7.48987 39.4611 13.9036V15.2842H41.5082V13.6603C41.5082 6.11592 35.3923 0 27.8479 0V0Z" fill="#E3E7FC"/>
<path d="M14.1875 13.6603V15.2842H16.2346V13.9036C16.2346 7.5557 21.328 2.39807 27.651 2.29293C27.6644 2.20367 27.6414 2.1087 27.5782 2.03338C27.2698 1.6655 26.9183 0.929491 27.8478 0C20.3034 0 14.1875 6.11592 14.1875 13.6603Z" fill="#C8CEFC"/>
<path d="M40.9746 14.0522H39.9004C39.4853 14.0522 39.1487 14.3888 39.1487 14.8039V15.4718C39.1487 15.8118 38.8549 16.0718 38.5163 16.0413L38.5098 16.0407C38.5517 16.1668 38.5747 16.3006 38.5747 16.4392V25.3941C38.5747 25.5328 38.5518 25.6666 38.5098 25.7927C39.2401 25.7277 39.926 25.5186 40.5358 25.1955C41.2694 24.8069 41.7261 24.0424 41.7261 23.2122V18.0816V17.5047V14.8039C41.7262 14.3887 41.3897 14.0522 40.9746 14.0522Z" fill="#C8CEFC"/>
<path d="M40.5357 19.6241C39.9441 19.9376 39.2804 20.1425 38.5746 20.2138V25.3942C38.5746 25.5328 38.5517 25.6666 38.5098 25.7927C39.2401 25.7278 39.926 25.5187 40.5358 25.1955C41.2694 24.807 41.7261 24.0424 41.7261 23.2121V18.0815V17.6406C41.7261 18.4709 41.2693 19.2355 40.5357 19.6241Z" fill="#B8C0F4"/>
<path d="M37.4056 26.7252H37.3017C36.5697 26.7252 35.9707 26.1263 35.9707 25.3943V16.4394C35.9707 15.7074 36.5697 15.1084 37.3017 15.1084H37.4056C38.1376 15.1084 38.7365 15.7074 38.7365 16.4394V25.3943C38.7364 26.1263 38.1376 26.7252 37.4056 26.7252Z" fill="#E3E7FC"/>
<path d="M14.7223 14.0522H15.7964C16.2115 14.0522 16.5481 14.3888 16.5481 14.8039V15.4718C16.5481 15.8118 16.8419 16.0718 17.1806 16.0413L17.1871 16.0407C17.1451 16.1668 17.1223 16.3006 17.1223 16.4392V25.3941C17.1223 25.5328 17.1451 25.6666 17.1871 25.7927C16.4568 25.7277 15.7708 25.5186 15.161 25.1955C14.4274 24.8069 13.9707 24.0424 13.9707 23.2122V18.0816V17.5047V14.8039C13.9707 14.3887 14.3072 14.0522 14.7223 14.0522Z" fill="#B8C0F4"/>
<path d="M17.1222 20.0993C16.4163 20.028 15.7525 19.8231 15.161 19.5096C14.4274 19.121 13.9707 18.3564 13.9707 17.5261V18.0813V23.2119C13.9707 24.042 14.4275 24.8066 15.161 25.1953C15.7708 25.5184 16.4568 25.7274 17.1871 25.7925C17.1451 25.6664 17.1223 25.5327 17.1223 25.3939V20.0993H17.1222Z" fill="#A4B0EA"/>
<path d="M18.2918 26.7252H18.3958C19.1278 26.7252 19.7268 26.1263 19.7268 25.3943V16.4394C19.7268 15.7074 19.1279 15.1084 18.3958 15.1084H18.2918C17.5598 15.1084 16.9609 15.7074 16.9609 16.4394V25.3943C16.9609 26.1263 17.5598 26.7252 18.2918 26.7252Z" fill="#E3E7FC"/>
<path d="M37.4056 21.0728H37.3016C36.5696 21.0728 35.9707 20.4738 35.9707 19.7419V25.3942C35.9707 26.1262 36.5696 26.7252 37.3016 26.7252H37.4056C38.1376 26.7252 38.7364 26.1263 38.7364 25.3942V19.7419C38.7366 20.4738 38.1376 21.0728 37.4056 21.0728Z" fill="#C8CEFC"/>
<path d="M18.3958 21.0728H18.2918C17.5598 21.0728 16.9609 20.4738 16.9609 19.7419V25.3942C16.9609 26.1262 17.5598 26.7252 18.2918 26.7252H18.3958C19.1278 26.7252 19.7268 26.1263 19.7268 25.3942V19.7419C19.7267 20.4738 19.1278 21.0728 18.3958 21.0728Z" fill="#C8CEFC"/>
<path d="M32.8312 35.1994C32.6914 34.7444 32.9469 34.2622 33.4019 34.1224C35.122 33.5938 36.666 32.9322 37.6582 32.4701C38.0252 32.2994 38.3074 31.9797 38.4323 31.5932L39.7909 27.388C40.0567 26.5659 39.5679 26.0095 39.4657 25.7219C39.2552 25.2951 39.4306 24.7783 39.8575 24.5676C40.2844 24.357 40.801 24.5326 41.0118 24.9593C41.0904 25.2047 41.945 26.3273 41.4313 27.918L40.0727 32.1231C39.8009 32.9644 39.1859 33.6605 38.3858 34.033C37.3443 34.5177 35.7221 35.2127 33.9083 35.77C33.4513 35.9107 32.9704 35.6524 32.8312 35.1994Z" fill="#E3E7FC"/>
<path d="M28.7936 37.3581C27.9368 37.3581 27.2422 36.6636 27.2422 35.8067C27.2422 34.9499 27.9367 34.2552 28.7936 34.2552C29.7732 34.2552 30.9375 34.0796 32.2542 33.7334C33.0834 33.5151 33.9313 34.0104 34.1492 34.8391C34.3671 35.6678 33.8722 36.5162 33.0435 36.7341C31.4692 37.1481 30.0393 37.3581 28.7936 37.3581Z" fill="#FF7545"/>
<path d="M30.3607 35.3108C30.3607 34.8081 30.5739 34.3559 30.9132 34.0366C30.1366 34.1813 29.4271 34.2554 28.7956 34.2554C27.9388 34.2554 27.2441 34.95 27.2441 35.8068C27.2441 36.6637 27.9387 37.3582 28.7956 37.3582C29.6971 37.3582 30.6963 37.2466 31.7755 37.029C30.9693 36.872 30.3607 36.1628 30.3607 35.3108Z" fill="#EA501B"/>
<path d="M47.035 2.11694H39.1571C34.9587 2.11694 31.5234 5.55205 31.5234 9.75059C31.5234 13.9491 34.9585 17.3842 39.1571 17.3842H44.5253C44.7803 17.3842 44.9871 17.591 44.9871 17.846V20.5231C44.9871 20.8256 45.3155 21.0151 45.5769 20.8628C47.051 20.0033 47.7808 18.8074 48.1417 17.8013C48.2541 17.488 48.511 17.2468 48.8344 17.1679C52.172 16.3536 54.6687 13.3297 54.6687 9.75048C54.6686 5.55216 51.2335 2.11694 47.035 2.11694Z" fill="#1CAFBA"/>
<path d="M31.5234 9.75059C31.5234 13.9491 34.9585 17.3842 39.157 17.3842H41.5993C38.5406 14.3864 41.3811 10.6976 41.3811 10.6976L40.8131 8.81618C37.8928 5.38896 40.8131 2.12071 40.8131 2.12071L40.8075 2.11694H39.1571C34.9585 2.11694 31.5234 5.55216 31.5234 9.75059Z" fill="#008C96"/>
<path d="M37.7348 9.84268C37.7348 10.4097 37.2753 10.8692 36.7083 10.8692C36.1413 10.8692 35.6816 10.4097 35.6816 9.84268C35.6816 9.27571 36.1413 8.81616 36.7083 8.81616C37.2753 8.81616 37.7348 9.27571 37.7348 9.84268Z" fill="white"/>
<path d="M41.8421 9.84268C41.8421 10.4097 41.3826 10.8692 40.8156 10.8692C40.2486 10.8692 39.7891 10.4097 39.7891 9.84268C39.7891 9.27571 40.2486 8.81616 40.8156 8.81616C41.3826 8.81616 41.8421 9.27571 41.8421 9.84268Z" fill="white"/>
<path d="M45.9476 9.84268C45.9476 10.4097 45.488 10.8692 44.9211 10.8692C44.3541 10.8692 43.8945 10.4097 43.8945 9.84268C43.8945 9.27571 44.3541 8.81616 44.9211 8.81616C45.488 8.81616 45.9476 9.27571 45.9476 9.84268Z" fill="white"/>
<path d="M50.053 9.84268C50.053 10.4097 49.5935 10.8692 49.0265 10.8692C48.4595 10.8692 48 10.4097 48 9.84268C48 9.27571 48.4595 8.81616 49.0265 8.81616C49.5935 8.81616 50.053 9.27571 50.053 9.84268Z" fill="white"/>
</svg>
