<svg width="56" height="56" viewBox="0 0 56 56" fill="none" xmlns="http://www.w3.org/2000/svg">
<path d="M28 0C12.5691 0 0 12.5691 0 28C0 43.4309 12.5691 56 28 56C43.4309 56 56 43.4309 56 28C56 12.5691 43.4309 0 28 0Z" fill="#12A5AF"/>
<path d="M56 28C56 43.4309 43.4309 56 28 56V0C43.4309 0 56 12.5691 56 28Z" fill="#008C96"/>
<path d="M42.644 23.9772L38.2449 19.5781L28 29.8228V38.6214L42.644 23.9772Z" fill="#F0DBD8"/>
<path d="M38.2444 19.5781L27.9995 29.8228L24.8884 32.9339L17.7546 25.8003L13.3555 30.1995L24.8884 41.7326L27.9995 38.6214L42.6435 23.9772L38.2444 19.5781Z" fill="#F9F5F3"/>
</svg>
