<svg width="45" height="33" viewBox="0 0 45 33" fill="none" xmlns="http://www.w3.org/2000/svg">
<path d="M19.9027 1.06853C20.5274 4.97274 20.8397 8.48652 20.8397 11.6099C20.8397 18.6895 19.2 23.8691 15.9204 27.1486C12.5368 30.4282 7.38324 32.0679 0.459782 32.0679L0.459782 23.4787L0.381699 23.4006C1.57899 23.4006 2.56805 23.3225 3.3489 23.1663C4.23385 23.0102 4.9366 22.7499 5.45717 22.3855C5.92567 22.0211 6.34212 21.6307 6.70651 21.2142C7.01885 20.8498 7.2531 20.2772 7.40927 19.4964C7.56544 18.7155 7.64352 18.0388 7.64352 17.4662C7.69558 17.1018 7.7216 16.2949 7.7216 15.0456L0.459783 15.0456L0.459784 1.06853L19.9027 1.06853ZM43.9526 0.99045C44.5773 4.89466 44.8897 8.40844 44.8897 11.5318C44.8896 18.6114 43.2239 23.791 39.8923 27.0705C36.6127 30.3501 31.4592 31.9898 24.4316 31.9898L24.4316 23.3225C25.5768 23.3225 26.5659 23.2444 27.3988 23.0883C28.3358 22.9321 29.0125 22.6718 29.429 22.3074C30.0537 21.8389 30.4701 21.4485 30.6783 21.1362C30.9907 20.7718 31.2249 20.1991 31.3811 19.4183L31.6934 17.3881L31.6934 14.9675L24.5097 14.9675L24.5097 0.990448L43.9526 0.99045Z" fill="white"/>
</svg>
