<svg width="22" height="38" viewBox="0 0 22 38" fill="none" xmlns="http://www.w3.org/2000/svg">
<path d="M13.4839 11.4839C13.4839 10.1143 12.3697 9 11 9C9.63044 9 8.51617 10.1143 8.51617 11.4839C8.51617 12.8535 9.63044 13.9677 11 13.9677C12.3697 13.9677 13.4839 12.8535 13.4839 11.4839Z" fill="white"/>
<path d="M22 27.8065V4.6C22 2.44776 20.249 0.696777 18.0968 0.696777H3.90323C1.75099 0.696777 0 2.44776 0 4.6V27.8065H22ZM13.8387 23.5484H8.16129C7.57339 23.5484 7.09677 23.0718 7.09677 22.4839C7.09677 21.896 7.57339 21.4194 8.16129 21.4194H13.8387C14.4266 21.4194 14.9032 21.896 14.9032 22.4839C14.9032 23.0718 14.4266 23.5484 13.8387 23.5484ZM5.32258 10.4194H6.51243C6.62768 9.93365 6.81922 9.47726 7.07484 9.06416L6.23274 8.22205C5.81701 7.80633 5.81701 7.13234 6.23274 6.71662C6.6484 6.30089 7.32245 6.30089 7.73818 6.71662L8.58028 7.55872C8.99339 7.30309 9.44978 7.11155 9.93548 6.9963V5.80645C9.93548 5.21856 10.4121 4.74194 11 4.74194C11.5879 4.74194 12.0645 5.21856 12.0645 5.80645V6.9963C12.5502 7.11155 13.0066 7.30309 13.4197 7.55872L14.2618 6.71662C14.6775 6.30089 15.3515 6.30089 15.7673 6.71662C16.183 7.13234 16.183 7.80633 15.7673 8.22205L14.9252 9.06416C15.1808 9.47726 15.3723 9.93365 15.4876 10.4194H16.6774C17.2653 10.4194 17.7419 10.896 17.7419 11.4839C17.7419 12.0718 17.2653 12.5484 16.6774 12.5484H15.4876C15.3723 13.0341 15.1808 13.4905 14.9252 13.9036L15.7673 14.7457C16.183 15.1614 16.183 15.8354 15.7673 16.2511C15.5594 16.459 15.2869 16.563 15.0146 16.563C14.7422 16.563 14.4697 16.4591 14.2619 16.2511L13.4198 15.409C13.0067 15.6647 12.5503 15.8562 12.0646 15.9714V17.1613C12.0646 17.7492 11.588 18.2258 11.0001 18.2258C10.4122 18.2258 9.93556 17.7492 9.93556 17.1613V15.9714C9.44985 15.8562 8.99346 15.6647 8.58035 15.409L7.73825 16.2511C7.53039 16.459 7.25794 16.563 6.98557 16.563C6.71319 16.563 6.44068 16.4591 6.23288 16.2511C5.81715 15.8354 5.81715 15.1614 6.23288 14.7457L7.07499 13.9036C6.81936 13.4905 6.62782 13.0341 6.51257 12.5484H5.32258C4.73468 12.5484 4.25806 12.0718 4.25806 11.4839C4.25806 10.896 4.73468 10.4194 5.32258 10.4194Z" fill="white"/>
<path d="M0 29.9355V33.129C0 35.2813 1.75099 37.0323 3.90323 37.0323H18.0968C20.249 37.0323 22 35.2813 22 33.129V29.9355H0ZM12.4194 34.5484H9.58064C8.99275 34.5484 8.51613 34.0718 8.51613 33.4839C8.51613 32.896 8.99275 32.4194 9.58064 32.4194H12.4194C13.0073 32.4194 13.4839 32.896 13.4839 33.4839C13.4839 34.0718 13.0073 34.5484 12.4194 34.5484Z" fill="white"/>
</svg>
