<svg width="37" height="36" viewBox="0 0 37 36" fill="none" xmlns="http://www.w3.org/2000/svg">
<path d="M34.4939 30.591H2.82179C1.80482 30.591 0.980392 31.4154 0.980392 32.4324V33.169C0.980392 34.186 1.80482 35.0104 2.82179 35.0104H34.4939C35.5109 35.0104 36.3353 34.186 36.3353 33.169V32.4324C36.3353 31.4154 35.5109 30.591 34.4939 30.591Z" fill="white"/>
<path d="M34.8017 14.9538L35.4852 13.9293C35.7512 13.5335 35.8526 13.0498 35.768 12.5806C35.6835 12.1113 35.4196 11.6934 35.0322 11.4154L19.7361 0.349294C19.4221 0.122231 19.0445 0 18.657 0C18.2695 0 17.8919 0.122231 17.578 0.349294L2.28179 11.4154C1.89445 11.6934 1.63055 12.1113 1.54599 12.5806C1.46144 13.0498 1.56287 13.5335 1.82881 13.9293L2.51233 14.9538C2.65076 15.1587 2.82883 15.3338 3.03603 15.4688C3.24323 15.6038 3.47537 15.6959 3.71874 15.7397C3.96212 15.7835 4.2118 15.7781 4.45306 15.7238C4.69431 15.6696 4.92226 15.5675 5.12344 15.4237L18.4412 5.79027C18.504 5.74486 18.5795 5.72041 18.657 5.72041C18.7345 5.72041 18.81 5.74486 18.8728 5.79027L32.1906 15.4237C32.3917 15.5677 32.6196 15.6699 32.8609 15.7243C33.1022 15.7787 33.352 15.7841 33.5954 15.7403C33.8388 15.6965 34.071 15.6043 34.2782 15.4692C34.4854 15.3342 34.6634 15.1589 34.8017 14.9538Z" fill="white"/>
<path d="M18.7563 12.641C18.4212 12.6361 18.0923 12.7306 17.811 12.9127C17.5297 13.0947 17.3087 13.356 17.176 13.6637C17.0432 13.9713 17.0047 14.3113 17.0652 14.6409C17.1257 14.9704 17.2825 15.2746 17.5159 15.515C17.7493 15.7554 18.0487 15.9212 18.3763 15.9914C18.7039 16.0616 19.045 16.0331 19.3564 15.9095C19.6678 15.7859 19.9356 15.5727 20.1258 15.2969C20.3161 15.0212 20.4203 14.6952 20.4253 14.3602C20.4286 14.1377 20.3881 13.9167 20.306 13.7099C20.2239 13.5031 20.1019 13.3145 19.9469 13.1549C19.7919 12.9952 19.607 12.8677 19.4027 12.7795C19.1984 12.6913 18.9787 12.6443 18.7563 12.641Z" fill="white"/>
<path d="M31.7605 16.0218L18.8707 6.69699C18.8078 6.65379 18.7334 6.63066 18.6571 6.63066C18.5808 6.63066 18.5063 6.65379 18.4435 6.69699L5.55366 16.0218C5.35539 16.1641 5.1369 16.2758 4.90549 16.3533C4.83367 16.3803 4.77185 16.4286 4.72838 16.4919C4.68492 16.5551 4.66189 16.6301 4.66242 16.7068V29.4862C4.66242 29.5839 4.70122 29.6775 4.77029 29.7466C4.83936 29.8157 4.93303 29.8545 5.0307 29.8545H32.2835C32.3811 29.8545 32.4748 29.8157 32.5439 29.7466C32.6129 29.6775 32.6517 29.5839 32.6517 29.4862V16.7068C32.6523 16.6301 32.6292 16.5551 32.5858 16.4919C32.5423 16.4286 32.4805 16.3803 32.4087 16.3533C32.1766 16.2773 31.9579 16.1655 31.7605 16.0218ZM21.2947 21.2021L21.2255 25.9558C21.2183 26.4388 21.031 26.9016 20.7003 27.2537L19.2353 28.813C19.143 28.911 19.0314 28.9887 18.9074 29.0412C18.7835 29.0937 18.65 29.1198 18.5154 29.1177C18.3808 29.1157 18.2481 29.0857 18.1258 29.0295C18.0034 28.9734 17.8941 28.8924 17.8049 28.7916L16.0489 26.8103C16.0063 26.7623 15.9845 26.6993 15.9882 26.6353C15.9919 26.5712 16.0209 26.5112 16.0688 26.4685L16.7789 25.838C16.826 25.7962 16.855 25.7375 16.8595 25.6746C16.8641 25.6117 16.8438 25.5496 16.8032 25.5014L16.0533 24.6087C16.0159 24.5648 15.9954 24.5091 15.9954 24.4514C15.9954 24.3938 16.0159 24.338 16.0533 24.2942L16.8032 23.4324C16.8437 23.3861 16.865 23.326 16.8627 23.2645C16.8604 23.203 16.8346 23.1448 16.7906 23.1017L16.2441 22.5618C16.151 22.4701 16.0774 22.3605 16.0278 22.2396C15.9781 22.1187 15.9535 21.989 15.9554 21.8584L15.9664 21.1218C14.8885 20.514 14.0438 19.5644 13.5657 18.423C13.0877 17.2816 13.0035 16.0135 13.3264 14.8189C13.6494 13.6243 14.3611 12.5714 15.3492 11.8264C16.3373 11.0814 17.5454 10.6868 18.7827 10.705C20.0201 10.7231 21.2161 11.1529 22.1819 11.9266C23.1477 12.7002 23.8283 13.7736 24.1161 14.9771C24.4039 16.1806 24.2826 17.4457 23.7713 18.5726C23.2599 19.6995 22.3878 20.6239 21.2925 21.1999L21.2947 21.2021Z" fill="white"/>
<path d="M18.6505 20.9885C18.5529 20.9885 18.4592 21.0273 18.3901 21.0963C18.3211 21.1654 18.2823 21.2591 18.2823 21.3568V23.7778C18.2823 23.8755 18.3211 23.9692 18.3901 24.0383C18.4592 24.1073 18.5529 24.1461 18.6505 24.1461C18.7482 24.1461 18.8419 24.1073 18.911 24.0383C18.98 23.9692 19.0188 23.8755 19.0188 23.7778V21.3568C19.0188 21.2591 18.98 21.1654 18.911 21.0963C18.8419 21.0273 18.7482 20.9885 18.6505 20.9885Z" fill="white"/>
</svg>
