<svg width="37" height="37" viewBox="0 0 37 37" fill="none" xmlns="http://www.w3.org/2000/svg">
<path d="M36.2776 15.9867C36.2776 13.95 34.6251 12.2975 32.5883 12.2975H19.3685L21.5667 4.96511C22.1662 2.90528 20.9903 0.753221 18.9304 0.153719C18.5846 0.0538015 18.231 0 17.8775 0C16.5401 0 15.3181 0.776279 14.7339 1.98297L10.0609 11.7518C9.36146 13.2044 7.88576 14.1344 6.27172 14.1421H0.922311C0.607188 14.1421 0.315123 14.3035 0.146033 14.5648C0.0538015 14.7109 0 14.8876 0 15.0644V31.666C0 32.1733 0.41504 32.5883 0.922311 32.5883H3.43561C4.68842 32.596 5.87205 33.1571 6.67139 34.1255C7.81659 35.509 9.52287 36.3083 11.3214 36.3006H27.0545C29.0912 36.3083 30.7514 34.6558 30.7514 32.6191C30.7514 31.8812 30.5362 31.1664 30.1288 30.5592C32.0503 29.8829 33.0649 27.7769 32.3885 25.8555C32.2886 25.5634 32.1426 25.279 31.9735 25.0254C33.8949 24.349 34.9095 22.2431 34.2331 20.3216C34.1332 20.0295 33.9872 19.7451 33.8181 19.4915C35.3015 18.9689 36.2853 17.5623 36.2776 15.9867Z" fill="white"/>
</svg>
