<svg width="39" height="38" viewBox="0 0 39 38" fill="none" xmlns="http://www.w3.org/2000/svg">
<g clip-path="url(#clip0_3_1130)">
<path fill-rule="evenodd" clip-rule="evenodd" d="M0.957397 9.06099L20.6633 10.966L38.0968 9.06099V3.58624C38.0968 2.62516 37.3165 1.83569 36.3475 1.83569H2.70675C1.73775 1.83569 0.957397 2.62516 0.957397 3.58624V9.06099Z" fill="#2E9CF5"/>
<path fill-rule="evenodd" clip-rule="evenodd" d="M36.3732 27.9136C-5.61983 27.9136 16.4786 27.9136 2.70675 27.9136C1.73775 27.9136 0.957397 27.1328 0.957397 26.1631V3.58618V9.06093H38.0968V26.1288C38.1311 27.1328 37.3422 27.9136 36.3732 27.9136Z" fill="#D9F2F2"/>
<path fill-rule="evenodd" clip-rule="evenodd" d="M7.74841 27.9737V27.9651V27.948V20.5081V13.0597C7.74841 12.7165 8.02282 12.4419 8.35726 12.4419H30.7215C31.0645 12.4419 31.3389 12.7165 31.3389 13.0597V20.5081C31.3389 20.5768 31.3218 20.6454 31.3046 20.7055V27.9823V34.8815C31.3046 35.5337 30.7901 36.0142 30.1727 36.0142H8.87177C8.26293 36.0142 7.74841 35.4993 7.74841 34.8815V27.9823V27.9737Z" fill="#55ACEE"/>
<path fill-rule="evenodd" clip-rule="evenodd" d="M11.8127 18.2771C10.6807 18.2771 9.72888 17.3246 9.72888 16.2005C9.72888 15.0678 10.6807 14.0809 11.8127 14.0809C12.9703 14.0809 13.8879 15.0334 13.8879 16.1661C13.8879 17.2903 12.9703 18.2771 11.8127 18.2771Z" fill="#7ED63F"/>
<path fill-rule="evenodd" clip-rule="evenodd" d="M16.42 18.2771C15.2966 18.2771 14.3362 17.3246 14.3362 16.2005C14.3362 15.0678 15.2966 14.0809 16.42 14.0809C17.5776 14.0809 18.5038 15.0334 18.5038 16.1661C18.5038 17.2903 17.5776 18.2771 16.42 18.2771Z" fill="#7ED63F"/>
<path fill-rule="evenodd" clip-rule="evenodd" d="M28.7394 16.7745H21.1246C20.7816 16.7745 20.5157 16.5001 20.5157 16.1656C20.5157 15.8226 20.7816 15.5482 21.1246 15.5482H28.7394C29.0824 15.5482 29.3568 15.8226 29.3568 16.1656C29.3568 16.5001 29.0481 16.7745 28.7394 16.7745Z" fill="white"/>
<path fill-rule="evenodd" clip-rule="evenodd" d="M11.8127 26.4978C10.6807 26.4978 9.72888 25.5367 9.72888 24.4126C9.72888 23.2885 10.6464 22.3274 11.8127 22.3274C12.9703 22.3274 13.8879 23.2885 13.8879 24.4126C13.8879 25.5367 12.9703 26.4978 11.8127 26.4978Z" fill="#7ED63F"/>
<path fill-rule="evenodd" clip-rule="evenodd" d="M16.42 26.4977C15.2966 26.4977 14.3362 25.5366 14.3362 24.4125C14.3362 23.2884 15.2623 22.3273 16.42 22.3273C17.5776 22.3273 18.5038 23.2884 18.5038 24.4125C18.5038 25.5366 17.5776 26.4977 16.42 26.4977Z" fill="#7ED63F"/>
<path fill-rule="evenodd" clip-rule="evenodd" d="M28.7394 24.9952H21.1246C20.7816 24.9952 20.5157 24.7208 20.5157 24.3778C20.5157 24.0348 20.7816 23.7604 21.1246 23.7604H28.7394C29.0824 23.7604 29.3568 24.0348 29.3568 24.3778C29.3568 24.7208 29.0481 24.9952 28.7394 24.9952Z" fill="white"/>
<path fill-rule="evenodd" clip-rule="evenodd" d="M11.8127 34.358C10.6807 34.358 9.72888 33.4055 9.72888 32.2728C9.72888 31.1487 10.6464 30.1876 11.8127 30.1876C12.9703 30.1876 13.8879 31.1144 13.8879 32.2728C13.9222 33.4055 12.9703 34.358 11.8127 34.358Z" fill="#7ED63F"/>
<path fill-rule="evenodd" clip-rule="evenodd" d="M16.42 34.358C15.2966 34.358 14.3362 33.4055 14.3362 32.2728C14.3362 31.1487 15.2623 30.1876 16.42 30.1876C17.5776 30.1876 18.5038 31.1144 18.5038 32.2728C18.5381 33.4055 17.5776 34.358 16.42 34.358Z" fill="#7ED63F"/>
<path fill-rule="evenodd" clip-rule="evenodd" d="M28.7394 32.8555H21.1246C20.7816 32.8555 20.5157 32.5811 20.5157 32.2381C20.5157 31.8951 20.7816 31.6293 21.1246 31.6293H28.7394C29.0824 31.6293 29.3568 31.8951 29.3568 32.2381C29.3568 32.5811 29.0481 32.8555 28.7394 32.8555Z" fill="white"/>
<path fill-rule="evenodd" clip-rule="evenodd" d="M7.74841 28.3594V28.3422V27.7677H31.3046V28.3765V28.5395H7.74841V28.3765V28.3594Z" fill="#458CC1"/>
<path fill-rule="evenodd" clip-rule="evenodd" d="M7.74841 20.5163V20.4991V19.916H31.3046V20.5334V20.6878H7.74841V20.5334V20.5163Z" fill="#458CC1"/>
<path fill-rule="evenodd" clip-rule="evenodd" d="M6.02291 7.43915C4.94242 7.43915 4.03345 6.53814 4.03345 5.44834C4.03345 4.35854 4.90812 3.45752 6.02291 3.45752C7.14627 3.45752 8.02094 4.35854 8.02094 5.44834C8.02094 6.53814 7.14627 7.43915 6.02291 7.43915Z" fill="#378B4E"/>
<path fill-rule="evenodd" clip-rule="evenodd" d="M11.2808 7.43915C10.1661 7.43915 9.29138 6.53814 9.29138 5.44834C9.29138 4.35854 10.1918 3.45752 11.2808 3.45752C12.3699 3.45752 13.2703 4.35854 13.2703 5.44834C13.2703 6.53814 12.3699 7.43915 11.2808 7.43915Z" fill="#FCBE37"/>
<path fill-rule="evenodd" clip-rule="evenodd" d="M16.5035 7.43915C15.3887 7.43915 14.514 6.53814 14.514 5.44834C14.514 4.35854 15.423 3.45752 16.5035 3.45752C17.5926 3.45752 18.5015 4.35854 18.5015 5.44834C18.5015 6.53814 17.5926 7.43915 16.5035 7.43915Z" fill="#FF5100"/>
<path fill-rule="evenodd" clip-rule="evenodd" d="M34.5026 5.96247H22.4886C22.1799 5.96247 21.9398 5.72236 21.9398 5.41365C21.9398 5.11352 22.1799 4.87341 22.4886 4.87341H34.5026C34.8027 4.87341 35.0428 5.11352 35.0428 5.41365C35.0428 5.72236 34.777 5.96247 34.5026 5.96247Z" fill="#67B7F8"/>
</g>
<defs>
<clipPath id="clip0_3_1130">
<rect width="37.1737" height="37.1991" fill="white" transform="translate(0.94165 0.325439)"/>
</clipPath>
</defs>
</svg>
