<svg width="33" height="33" viewBox="0 0 33 33" fill="none" xmlns="http://www.w3.org/2000/svg">
<g clip-path="url(#clip0_3_1083)">
<path d="M27.5875 32.9293H5.46978C5.1143 32.9293 4.82617 32.641 4.82617 32.2853V1.56482C4.82617 1.2091 5.1143 0.920776 5.46978 0.920776H27.5875C27.943 0.920776 28.2311 1.2091 28.2311 1.56482V32.2853C28.2311 32.641 27.9429 32.9293 27.5875 32.9293Z" fill="#ECF4FF"/>
<path d="M5.46995 32.9293H27.5877C27.9431 32.9293 28.2313 32.641 28.2313 32.2853V19.5208C25.9422 22.1381 23.1116 24.6277 19.8298 26.8017C14.9822 30.013 9.88593 32.0475 5.21118 32.8748C5.2904 32.9096 5.3778 32.9293 5.46995 32.9293Z" fill="#CBE2FF"/>
<path d="M10.1569 9.84033V7.23145C8.31957 7.23145 6.83831 8.75679 6.90866 10.6111C6.97263 12.297 8.3455 13.6709 10.0303 13.7349C11.8833 13.8053 13.4076 12.323 13.4076 10.4844H10.8005C10.4451 10.4844 10.1569 10.196 10.1569 9.84033Z" fill="#E49542"/>
<path d="M10.1543 7.23145V9.84033C10.1543 10.196 10.4424 10.4844 10.7979 10.4844H13.405C13.405 8.68783 11.9496 7.23145 10.1543 7.23145Z" fill="#C8EA73"/>
<path d="M11.3281 3.64629V4.43953C11.3281 4.795 11.6163 5.08313 11.9717 5.08313H21.0867C21.4422 5.08313 21.7303 4.795 21.7303 4.43953V3.64629C21.7303 3.29082 21.4422 3.00269 21.0867 3.00269H11.9717C11.6163 3.00269 11.3281 3.29082 11.3281 3.64629Z" fill="#4073C8"/>
<path d="M7.16406 29.1517V30.4598C7.16406 30.6731 7.33693 30.846 7.55021 30.846H9.89855C10.1118 30.846 10.2847 30.6731 10.2847 30.4598V29.1517C10.2847 28.9384 10.1118 28.7655 9.89855 28.7655H7.55021C7.33699 28.7655 7.16406 28.9384 7.16406 29.1517Z" fill="#4073C8"/>
<path d="M12.3672 26.0292V30.461C12.3672 30.6745 12.5401 30.8475 12.7533 30.8475H15.1017C15.315 30.8475 15.4878 30.6745 15.4878 30.461V26.0292C15.4878 25.8158 15.315 25.6428 15.1017 25.6428H12.7533C12.5401 25.6428 12.3672 25.8159 12.3672 26.0292Z" fill="#E49542"/>
<path d="M12.7506 30.8464H15.0989C15.3122 30.8464 15.4851 30.6735 15.4851 30.4602V29.3367C14.4798 29.8483 13.4726 30.3105 12.4688 30.7237C12.5393 30.799 12.6393 30.8464 12.7506 30.8464Z" fill="#E28424"/>
<path d="M17.5664 22.1257V30.461C17.5664 30.6744 17.7393 30.8474 17.9526 30.8474H20.3009C20.5142 30.8474 20.687 30.6744 20.687 30.461V22.1257C20.687 21.9122 20.5142 21.7393 20.3009 21.7393H17.9526C17.7393 21.7393 17.5664 21.9122 17.5664 22.1257Z" fill="#DD5790"/>
<path d="M20.687 26.2158C20.4035 26.4132 20.1177 26.609 19.8271 26.8015C19.0787 27.2974 18.3242 27.7646 17.5664 28.2042V30.461C17.5664 30.6744 17.7393 30.8474 17.9526 30.8474H20.3009C20.5142 30.8474 20.687 30.6744 20.687 30.461V26.2158Z" fill="#DA387D"/>
<path d="M22.7676 19.5234V30.461C22.7676 30.6744 22.9404 30.8474 23.1537 30.8474H25.5021C25.7154 30.8474 25.8882 30.6744 25.8882 30.461V19.5234C25.8882 19.3099 25.7154 19.137 25.5021 19.137H23.1537C22.9405 19.137 22.7676 19.3099 22.7676 19.5234Z" fill="#C8EA73"/>
<path d="M25.8882 21.9678C24.9166 22.9 23.8752 23.8066 22.7676 24.6778V30.461C22.7676 30.6744 22.9404 30.8474 23.1537 30.8474H25.5021C25.7154 30.8474 25.8882 30.6744 25.8882 30.461V21.9678Z" fill="#B7E445"/>
<path d="M26.1515 7.71388H16.5295C16.2629 7.71388 16.0469 7.49779 16.0469 7.23121C16.0469 6.96463 16.263 6.74854 16.5295 6.74854H26.1515C26.4182 6.74854 26.6342 6.96463 26.6342 7.23121C26.6342 7.49772 26.4182 7.71388 26.1515 7.71388Z" fill="#9DC6FB"/>
<path d="M26.1515 9.88234H16.5295C16.2629 9.88234 16.0469 9.66624 16.0469 9.39967C16.0469 9.13309 16.263 8.91699 16.5295 8.91699H26.1515C26.4182 8.91699 26.6342 9.13309 26.6342 9.39967C26.6342 9.66624 26.4182 9.88234 26.1515 9.88234Z" fill="#9DC6FB"/>
<path d="M26.1515 12.0509H16.5295C16.2629 12.0509 16.0469 11.8348 16.0469 11.5682C16.0469 11.3017 16.263 11.0856 16.5295 11.0856H26.1515C26.4182 11.0856 26.6342 11.3017 26.6342 11.5682C26.6342 11.8348 26.4182 12.0509 26.1515 12.0509Z" fill="#9DC6FB"/>
<path d="M22.2507 14.2195H16.5295C16.2629 14.2195 16.0469 14.0034 16.0469 13.7368C16.0469 13.4702 16.263 13.2542 16.5295 13.2542H22.2507C22.5174 13.2542 22.7334 13.4702 22.7334 13.7368C22.7335 14.0034 22.5174 14.2195 22.2507 14.2195Z" fill="#9DC6FB"/>
<path d="M16.531 17.4074H7.75416C7.48752 17.4074 7.27148 17.1913 7.27148 16.9247C7.27148 16.6581 7.48758 16.442 7.75416 16.442H16.531C16.7976 16.442 17.0137 16.6581 17.0137 16.9247C17.0137 17.1913 16.7976 17.4074 16.531 17.4074Z" fill="#9DC6FB"/>
<path d="M16.531 19.5759H7.75416C7.48752 19.5759 7.27148 19.3598 7.27148 19.0933C7.27148 18.8267 7.48758 18.6106 7.75416 18.6106H16.531C16.7976 18.6106 17.0137 18.8267 17.0137 19.0933C17.0137 19.3598 16.7976 19.5759 16.531 19.5759Z" fill="#9DC6FB"/>
<path d="M12.6302 21.7445H7.75416C7.48752 21.7445 7.27148 21.5284 7.27148 21.2619C7.27148 20.9953 7.48758 20.7792 7.75416 20.7792H12.6302C12.8968 20.7792 13.1129 20.9953 13.1129 21.2619C13.1129 21.5284 12.8968 21.7445 12.6302 21.7445Z" fill="#9DC6FB"/>
</g>
<defs>
<clipPath id="clip0_3_1083">
<rect width="31.9867" height="32.0085" fill="white" transform="translate(0.533203 0.920776)"/>
</clipPath>
</defs>
</svg>
