<svg width="42" height="42" viewBox="0 0 42 42" fill="none" xmlns="http://www.w3.org/2000/svg">
<g clip-path="url(#clip0_3_1041)">
<path d="M37.5493 34.6558H10.799V32.5076L7.85749 30.3776L3.75769 4.72803H33.548L36.6308 7.23321H38.9078V33.2963C38.9079 34.0472 38.2997 34.6558 37.5493 34.6558Z" fill="#F4FBFF"/>
<path d="M36.9602 7.23328V33.2964C36.9602 34.0472 36.3519 34.6559 35.6016 34.6559H37.5484C38.2986 34.6559 38.907 34.0472 38.907 33.2964V7.23328H36.9602Z" fill="#E4F6FF"/>
<path d="M38.9079 7.23327H0.779297V3.58243C0.779297 2.83156 1.38754 2.2229 2.1379 2.2229H37.5494C38.2998 2.2229 38.908 2.83156 38.908 3.58243V7.23327H38.9079Z" fill="#3B66C1"/>
<path d="M37.5484 2.2229H35.6016C36.3519 2.2229 36.9602 2.83156 36.9602 3.58243V7.23335H38.907V3.58243C38.907 2.83156 38.2987 2.2229 37.5484 2.2229V2.2229Z" fill="#30579D"/>
<path d="M3.75733 5.34745H2.95754C2.61523 5.34745 2.33789 5.07003 2.33789 4.7278C2.33789 4.38558 2.61531 4.10815 2.95754 4.10815H3.75733C4.09963 4.10815 4.37698 4.38558 4.37698 4.7278C4.37698 5.07003 4.09963 5.34745 3.75733 5.34745Z" fill="#ECBE6B"/>
<path d="M7.18701 5.34745H6.38723C6.04492 5.34745 5.76758 5.07003 5.76758 4.7278C5.76758 4.38558 6.045 4.10815 6.38723 4.10815H7.18701C7.52932 4.10815 7.80666 4.38558 7.80666 4.7278C7.80666 5.07003 7.52924 5.34745 7.18701 5.34745Z" fill="#90D8F9"/>
<path d="M10.6127 5.34745H9.81301C9.4707 5.34745 9.19336 5.07003 9.19336 4.7278C9.19336 4.38558 9.47078 4.10815 9.81301 4.10815H10.6127C10.955 4.10815 11.2324 4.38558 11.2324 4.7278C11.2324 5.07003 10.955 5.34745 10.6127 5.34745V5.34745Z" fill="#B3E59F"/>
<path d="M31.9045 20.0288C31.5715 20.0288 31.2769 19.8172 31.1706 19.5011C31.1681 19.4936 31.1658 19.4863 31.1636 19.4787L29.7632 14.7292L28.909 19.4654C28.8482 19.8025 28.5258 20.0262 28.1891 19.9655C27.8524 19.9046 27.6286 19.5821 27.6894 19.2451L28.8925 12.5748C28.9603 12.2223 29.2517 11.9646 29.6023 11.9412C29.9528 11.9175 30.276 12.1339 30.3881 12.4673C30.3906 12.4747 30.3929 12.482 30.3951 12.4895L31.8968 17.5831L33.3459 12.4962C33.348 12.4889 33.3502 12.4818 33.3525 12.4747C33.461 12.1402 33.7802 11.9186 34.1327 11.9403C34.4836 11.9601 34.7776 12.2147 34.8477 12.5592L36.1233 19.2388C36.1876 19.5752 35.9671 19.8999 35.631 19.9642C35.2953 20.0289 34.9703 19.808 34.9061 19.4716L33.9995 14.7251L32.6474 19.4716C32.6454 19.4788 32.6433 19.4859 32.6409 19.493C32.5376 19.8116 32.2433 20.027 31.9086 20.0287C31.9073 20.0288 31.9059 20.0288 31.9045 20.0288V20.0288Z" fill="#30579D"/>
<path d="M17.6162 20.0295C15.3874 20.0295 13.5741 18.215 13.5741 15.9847C13.5741 13.7544 15.3874 11.9398 17.6162 11.9398C18.4261 11.9398 19.2077 12.1788 19.8766 12.631C20.1602 12.8226 20.2348 13.2081 20.0432 13.4919C19.8517 13.7757 19.4665 13.8502 19.1829 13.6586C18.7196 13.3455 18.1779 13.1799 17.6162 13.1799C16.0707 13.1799 14.8134 14.4381 14.8134 15.9847C14.8134 17.5312 16.0707 18.7894 17.6162 18.7894C18.1998 18.7894 18.6931 18.6135 19.0825 18.2665C19.1582 18.199 19.2306 18.1241 19.2978 18.044C19.5177 17.7817 19.9086 17.7477 20.1708 17.9678C20.4329 18.1878 20.467 18.5791 20.247 18.8413C20.1415 18.967 20.0271 19.0852 19.9069 19.1924C19.2923 19.7401 18.5002 20.0295 17.6162 20.0295V20.0295Z" fill="#30579D"/>
<path d="M24.2431 16.717C25.462 16.5581 26.4048 15.5528 26.4048 14.3393C26.4048 13.0158 25.2837 11.9391 23.9056 11.9391H22.0866C22.0862 11.9391 22.0859 11.9392 22.0855 11.9392C22.0851 11.9392 22.0848 11.9391 22.0844 11.9391C21.7421 11.9391 21.4647 12.2167 21.4647 12.5591V19.4087C21.4647 19.7513 21.7421 20.0288 22.0844 20.0288C22.4266 20.0288 22.704 19.7512 22.704 19.4087V16.8441L25.32 19.8184C25.4425 19.9577 25.6135 20.0289 25.7854 20.0289C25.9308 20.0289 26.0768 19.9779 26.1946 19.8742C26.4515 19.648 26.4764 19.2562 26.2503 18.9991L24.2431 16.717ZM23.9056 13.1792C24.5885 13.1792 25.1654 13.7105 25.1654 14.3393C25.1654 14.9681 24.5885 15.4993 23.9056 15.4993C23.6315 15.4993 23.1236 15.5016 22.7153 15.5037C22.7131 15.1011 22.7094 13.5989 22.7082 13.1792H23.9056Z" fill="#30579D"/>
<path d="M40.6467 29.5437L41.4099 30.0028C41.6794 30.165 41.8444 30.4567 41.8444 30.7715V32.5059C41.8859 33.3641 40.6923 33.46 40.3324 34.0538L38.642 36.9837C38.3082 37.5923 38.8219 38.6751 38.0584 39.068L36.5574 39.9352C35.8354 40.4004 35.1556 39.4139 34.4617 39.3989H31.081C30.3873 39.4138 29.7072 40.4005 28.9853 39.9352L27.4843 39.068C26.7208 38.6748 27.2346 37.5926 26.9007 36.9837L25.2104 34.0538C24.8506 33.4601 23.6566 33.364 23.6983 32.5059V30.7715C23.6568 29.9132 24.8504 29.8174 25.2104 29.2235L26.9007 26.2937C27.2346 25.685 26.7209 24.6023 27.4843 24.2093L28.9853 23.3421C29.7073 22.8769 30.3871 23.8634 31.081 23.8785H34.4617C35.1555 23.8635 35.8356 22.8769 36.5574 23.3421L38.0584 24.2093C38.8219 24.6025 38.3081 25.6848 38.642 26.2937L40.3324 29.2235C40.4083 29.3552 40.5166 29.4654 40.6467 29.5437Z" fill="#90D8F9"/>
<path d="M41.4096 30.0027C41.1531 29.8234 40.4697 29.5228 40.3321 29.2235L38.6417 26.2936C38.3079 25.685 38.8216 24.6022 38.0581 24.2093L36.5571 23.3421C36.1021 23.0384 35.5688 23.3776 35.1699 23.614L36.2001 24.2092C36.9637 24.6024 36.4498 25.6846 36.7837 26.2936L38.474 29.2234C38.8338 29.8171 40.0278 29.9132 39.9861 30.7713V32.5058C40.0276 33.364 38.834 33.4598 38.474 34.0537L36.7837 36.9835C36.5938 37.249 36.6747 37.9989 36.6481 38.307C36.7037 39.0096 35.6199 39.3519 35.1699 39.6631C35.5694 39.8997 36.1016 40.2386 36.5571 39.935L38.0581 39.0678C38.8216 38.6746 38.3078 37.5924 38.6417 36.9835L40.3321 34.0536C40.6918 33.4599 41.8858 33.3638 41.8441 32.5057V30.7714C41.8441 30.4567 41.6792 30.1649 41.4096 30.0027V30.0027Z" fill="#75CEF9"/>
<path d="M32.7697 36.7634C35.5981 36.7634 37.8909 34.469 37.8909 31.6386C37.8909 28.8083 35.5981 26.5139 32.7697 26.5139C29.9413 26.5139 27.6484 28.8083 27.6484 31.6386C27.6484 34.469 29.9413 36.7634 32.7697 36.7634Z" fill="#F4FBFF"/>
<path d="M32.7669 26.5139C32.4494 26.5139 32.1393 26.5443 31.8379 26.5996C34.2225 27.0372 36.0302 29.126 36.0302 31.6386C36.0302 34.1513 34.2225 36.2402 31.8379 36.6777C32.1393 36.733 32.4495 36.7634 32.7669 36.7634C35.5952 36.7634 37.8881 34.469 37.8881 31.6386C37.8881 28.8083 35.5952 26.5139 32.7669 26.5139V26.5139Z" fill="#E4F6FF"/>
<path d="M10.7991 34.6559H2.1379C1.38754 34.6559 0.779297 34.0472 0.779297 33.2964V7.23328H10.7991V34.6559Z" fill="#CBE2FF"/>
<path d="M7.28961 11.6604H4.2876C3.9453 11.6604 3.66797 11.383 3.66797 11.0408C3.66797 10.6985 3.94538 10.4211 4.2876 10.4211H7.28961C7.63191 10.4211 7.90924 10.6986 7.90924 11.0408C7.90924 11.383 7.63183 11.6604 7.28961 11.6604Z" fill="#E4F6FF"/>
<path d="M7.28961 15.4681H4.2876C3.9453 15.4681 3.66797 15.1907 3.66797 14.8485C3.66797 14.5063 3.94538 14.2289 4.2876 14.2289H7.28961C7.63191 14.2289 7.90924 14.5063 7.90924 14.8485C7.90924 15.1907 7.63183 15.4681 7.28961 15.4681Z" fill="#E4F6FF"/>
<path d="M7.28961 19.276H4.2876C3.9453 19.276 3.66797 18.9986 3.66797 18.6564C3.66797 18.3141 3.94538 18.0367 4.2876 18.0367H7.28961C7.63191 18.0367 7.90924 18.3142 7.90924 18.6564C7.90924 18.9986 7.63183 19.276 7.28961 19.276Z" fill="#E4F6FF"/>
<path d="M7.28961 23.0839H4.2876C3.9453 23.0839 3.66797 22.8065 3.66797 22.4642C3.66797 22.122 3.94538 21.8446 4.2876 21.8446H7.28961C7.63191 21.8446 7.90924 22.122 7.90924 22.4642C7.90924 22.8065 7.63183 23.0839 7.28961 23.0839Z" fill="#E4F6FF"/>
<path d="M7.28961 26.8916H4.2876C3.9453 26.8916 3.66797 26.6142 3.66797 26.272C3.66797 25.9297 3.94538 25.6523 4.2876 25.6523H7.28961C7.63191 25.6523 7.90924 25.9298 7.90924 26.272C7.90924 26.6143 7.63183 26.8916 7.28961 26.8916Z" fill="#E4F6FF"/>
</g>
<defs>
<clipPath id="clip0_3_1041">
<rect width="41.064" height="41.092" fill="white" transform="translate(0.779297 0.595215)"/>
</clipPath>
</defs>
</svg>
