<svg width="36" height="36" viewBox="0 0 36 36" fill="none" xmlns="http://www.w3.org/2000/svg">
<g clip-path="url(#clip0_3_1272)">
<path d="M9.01185 12.1288H2.25265C1.95894 12.1288 1.72083 11.8905 1.72083 11.5966V10.1035C1.72083 7.94177 3.47207 6.18933 5.63232 6.18933C7.79256 6.18933 9.5438 7.94177 9.5438 10.1035V11.5966C9.54367 11.8905 9.30562 12.1288 9.01185 12.1288Z" fill="#C3DA40"/>
<path d="M12.9811 25.3816C12.2234 24.881 11.7366 24.3071 11.5342 23.6758C10.2588 23.1339 9.43555 21.8658 9.43555 20.4406C9.43555 18.5119 10.9544 16.9427 12.8215 16.9427H17.1308C18.9978 16.9427 20.5167 18.5119 20.5167 20.4406C20.5167 22.3694 18.9979 23.9385 17.1308 23.9385H13.7891C13.7604 24.2271 13.772 24.5276 13.8237 24.832L13.9786 25.7461C13.9999 25.872 13.8609 25.9627 13.7544 25.8924L12.9811 25.3816Z" fill="#FF62A7"/>
<path d="M20.5165 20.4406C20.5165 18.5119 18.9977 16.9427 17.1306 16.9427H12.8213C12.3353 16.9427 11.8734 17.0499 11.4552 17.2412C11.6351 20.137 14.0932 22.3989 17.0231 22.3989H19.9348C20.3019 21.8397 20.5165 21.1656 20.5165 20.4406Z" fill="#FC5479"/>
<path d="M21.8644 22.8893C21.9723 22.4248 22.0037 21.9687 21.9582 21.5335H17.7743C15.4216 21.5335 13.4582 19.6639 13.4224 17.3098C13.3859 14.9138 15.323 12.9529 17.7092 12.9529H23.1176C25.4753 12.9529 27.437 14.8325 27.4647 17.1917C27.4855 18.9622 26.4368 20.5429 24.8034 21.2132C24.4518 22.2787 23.4516 23.0382 22.6724 23.4885L21.8697 23.9523C21.7592 24.0163 21.6258 23.9173 21.6546 23.7929L21.8644 22.8893Z" fill="#31D2F7"/>
<path d="M16.9267 18.4752C16.8902 16.0791 18.8274 14.1183 21.2136 14.1183H26.0901C25.3086 13.395 24.26 12.9529 23.1176 12.9529H17.7092C15.323 12.9529 13.3859 14.9138 13.4224 17.3098C13.4583 19.6639 15.4216 21.5335 17.7743 21.5335H18.3029C17.4743 20.7675 16.9452 19.6859 16.9267 18.4752Z" fill="#13ACE8"/>
<path d="M34.3457 12.1288H27.5865C27.2928 12.1288 27.0547 11.8905 27.0547 11.5966V10.1035C27.0547 7.94177 28.8059 6.18933 30.9662 6.18933C33.1264 6.18933 34.8777 7.94177 34.8777 10.1035V11.5966C34.8775 11.8905 34.6394 12.1288 34.3457 12.1288Z" fill="#FFCF59"/>
<path d="M9.01185 33.0363H2.25265C1.95894 33.0363 1.72083 32.798 1.72083 32.504V31.011C1.72083 28.8492 3.47207 27.0968 5.63232 27.0968C7.79256 27.0968 9.5438 28.8492 9.5438 31.011V32.504C9.54367 32.798 9.30562 33.0363 9.01185 33.0363Z" fill="#FF62A7"/>
<path d="M34.3457 33.0363H27.5865C27.2928 33.0363 27.0547 32.798 27.0547 32.504V31.011C27.0547 28.8492 28.8059 27.0968 30.9662 27.0968C33.1264 27.0968 34.8777 28.8492 34.8777 31.011V32.504C34.8775 32.798 34.6394 33.0363 34.3457 33.0363Z" fill="#31D2F7"/>
<path d="M4.72657 11.5966V10.1035C4.72657 8.47477 5.72094 7.07879 7.13519 6.48919C6.67243 6.29629 6.16489 6.18933 5.63232 6.18933C3.47207 6.18933 1.72083 7.94177 1.72083 10.1035V11.5966C1.72083 11.8905 1.95894 12.1288 2.25272 12.1288H5.25839C4.96468 12.1288 4.72657 11.8905 4.72657 11.5966Z" fill="#ADBC15"/>
<path d="M30.0604 11.5966V10.1035C30.0604 8.47477 31.0548 7.07879 32.469 6.48919C32.0063 6.29629 31.4987 6.18933 30.9662 6.18933C28.8059 6.18933 27.0547 7.94177 27.0547 10.1035V11.5966C27.0547 11.8905 27.2928 12.1288 27.5866 12.1288H30.5923C30.2985 12.1288 30.0604 11.8905 30.0604 11.5966Z" fill="#FFB55C"/>
<path d="M4.72657 32.5039V31.0108C4.72657 29.3821 5.72094 27.9861 7.13519 27.3965C6.67243 27.2036 6.16489 27.0967 5.63232 27.0967C3.47207 27.0967 1.72083 28.8491 1.72083 31.0108V32.5039C1.72083 32.7978 1.95894 33.0362 2.25272 33.0362H5.25839C4.96468 33.0362 4.72657 32.7979 4.72657 32.5039Z" fill="#FC5479"/>
<path d="M30.0604 32.5039V31.0108C30.0604 29.3821 31.0548 27.9861 32.469 27.3965C32.0063 27.2036 31.4987 27.0967 30.9662 27.0967C28.8059 27.0967 27.0547 28.8491 27.0547 31.0108V32.5039C27.0547 32.7978 27.2928 33.0362 27.5866 33.0362H30.5923C30.2985 33.0362 30.0604 32.7979 30.0604 32.5039Z" fill="#13ACE8"/>
<path d="M17.3418 35.6462C17.3309 35.6462 17.32 35.6459 17.309 35.6452C16.6322 35.6068 15.952 35.5284 15.2873 35.4123C14.9774 35.3582 14.7701 35.0629 14.8242 34.7528C14.8783 34.4426 15.1729 34.235 15.4833 34.2893C16.1047 34.3978 16.7406 34.4711 17.3736 34.507C17.6877 34.5248 17.9279 34.7941 17.9101 35.1084C17.8928 35.4117 17.6416 35.6462 17.3418 35.6462ZM19.3098 35.6452C19.0102 35.6452 18.7591 35.4111 18.7416 35.1081C18.7234 34.7938 18.9633 34.5243 19.2773 34.5062C19.9102 34.4695 20.5462 34.3956 21.1676 34.2865C21.4773 34.2319 21.7727 34.4392 21.8271 34.7493C21.8816 35.0594 21.6745 35.3548 21.3646 35.4093C20.7 35.5261 20.0199 35.6052 19.3432 35.6443C19.3321 35.6449 19.3209 35.6452 19.3098 35.6452ZM13.469 34.9695C13.415 34.9695 13.3602 34.9617 13.3059 34.9455C12.6575 34.752 12.0135 34.5179 11.3915 34.2496C11.1027 34.1249 10.9695 33.7896 11.094 33.5005C11.2186 33.2114 11.5538 33.0783 11.8426 33.2028C12.4237 33.4535 13.0256 33.6723 13.6314 33.8532C13.9329 33.9432 14.1044 34.2607 14.0145 34.5624C13.9409 34.8095 13.7143 34.9695 13.469 34.9695ZM23.1822 34.9643C22.937 34.9643 22.7107 34.8047 22.6367 34.5577C22.5464 34.2561 22.7176 33.9384 23.019 33.8481C23.6243 33.6668 24.2257 33.4474 24.8064 33.1962C25.0952 33.0712 25.4305 33.2042 25.5553 33.4931C25.6802 33.782 25.5473 34.1176 25.2585 34.2425C24.6371 34.5113 23.9936 34.746 23.3458 34.9402C23.2913 34.9565 23.2363 34.9643 23.1822 34.9643ZM2.40252 24.5385C2.16995 24.5385 1.95174 24.395 1.86742 24.1638C1.63539 23.528 1.43865 22.8715 1.2824 22.2125C1.20984 21.9062 1.39913 21.599 1.70521 21.5263C2.01198 21.4537 2.31834 21.6431 2.39097 21.9494C2.53683 22.5652 2.72078 23.1787 2.93756 23.7727C3.04547 24.0684 2.89338 24.3957 2.59783 24.5036C2.53341 24.5273 2.46742 24.5385 2.40252 24.5385ZM34.2369 24.5227C34.1722 24.5227 34.1065 24.5116 34.0421 24.4882C33.7465 24.3805 33.5941 24.0534 33.7016 23.7576C33.9179 23.1627 34.1012 22.5486 34.2466 21.9326C34.3189 21.6261 34.6261 21.4366 34.9319 21.5088C35.238 21.5811 35.4276 21.8881 35.3554 22.1945C35.1999 22.8538 35.0037 23.5108 34.7721 24.1475C34.6881 24.3788 34.4695 24.5227 34.2369 24.5227ZM1.49432 20.7106C1.20929 20.7106 0.963112 20.4968 0.92933 20.2066C0.851167 19.5365 0.811231 18.8527 0.810547 18.1741C0.810274 17.8594 1.065 17.6039 1.37957 17.6036C1.37977 17.6036 1.37998 17.6036 1.38018 17.6036C1.69455 17.6036 1.94948 17.8584 1.94975 18.173C1.95044 18.808 1.98771 19.4476 2.06074 20.0745C2.09726 20.3871 1.87351 20.6702 1.56099 20.7067C1.5387 20.7094 1.51634 20.7106 1.49432 20.7106ZM35.1414 20.6927C35.1195 20.6927 35.0975 20.6914 35.0752 20.6888C34.7627 20.6527 34.5386 20.3699 34.5748 20.0572C34.6472 19.4303 34.6839 18.7905 34.6839 18.1556V18.1195C34.6839 17.8048 34.9389 17.5496 35.2535 17.5496C35.568 17.5496 35.823 17.8048 35.823 18.1195V18.1556C35.823 18.834 35.7838 19.5179 35.7064 20.1881C35.6729 20.4785 35.4267 20.6927 35.1414 20.6927ZM1.49172 16.7767C1.47004 16.7767 1.44823 16.7754 1.42614 16.7729C1.11356 16.7371 0.889257 16.4546 0.92509 16.1418C1.00209 15.4685 1.11951 14.7934 1.27392 14.1352C1.34586 13.8286 1.65256 13.6384 1.95878 13.7106C2.26507 13.7825 2.45497 14.0893 2.3831 14.3958C2.23868 15.011 2.12899 15.6421 2.05698 16.2714C2.02368 16.5621 1.77729 16.7767 1.49172 16.7767ZM35.1358 16.7229C34.851 16.7229 34.605 16.5095 34.5709 16.2195C34.4969 15.5904 34.3851 14.9598 34.2388 14.3448C34.1659 14.0386 34.3548 13.7312 34.6608 13.6582C34.9669 13.5851 35.274 13.7743 35.347 14.0806C35.5036 14.7385 35.6231 15.4132 35.7023 16.0861C35.7391 16.3988 35.5156 16.682 35.2032 16.7188C35.1805 16.7216 35.158 16.7229 35.1358 16.7229ZM9.8284 4.05679C9.632 4.05679 9.44094 3.95503 9.33528 3.7728C9.17732 3.50052 9.26984 3.15166 9.54201 2.99372C10.1272 2.65383 10.7382 2.34514 11.3582 2.07614C11.6468 1.95091 11.9823 2.08353 12.1074 2.3723C12.2326 2.66108 12.1 2.9968 11.8114 3.12203C11.232 3.37344 10.6609 3.66201 10.1139 3.97967C10.0238 4.03195 9.92544 4.05679 9.8284 4.05679ZM26.7607 4.03113C26.6642 4.03113 26.5664 4.00656 26.4768 3.9549C25.9282 3.63854 25.3557 3.35154 24.7751 3.10177C24.4861 2.97743 24.3525 2.64219 24.4767 2.35301C24.6009 2.06382 24.9358 1.92983 25.225 2.05444C25.8462 2.32166 26.4587 2.62871 27.0456 2.96717C27.3182 3.12435 27.4117 3.47287 27.2547 3.74564C27.1494 3.92869 26.9577 4.03113 26.7607 4.03113ZM13.4339 2.49253C13.1891 2.49253 12.9628 2.33323 12.8886 2.08647C12.798 1.78496 12.9689 1.4671 13.2702 1.3765C13.9176 1.18175 14.584 1.02326 15.2507 0.905357C15.5607 0.850681 15.856 1.05748 15.9107 1.36754C15.9655 1.67753 15.7587 1.97322 15.4489 2.02803C14.8258 2.13813 14.2031 2.28629 13.5981 2.46831C13.5435 2.48473 13.4882 2.49253 13.4339 2.49253ZM23.148 2.47693C23.0943 2.47693 23.0398 2.46934 22.9855 2.45319C22.3797 2.27315 21.7566 2.12705 21.1334 2.01893C20.8234 1.96514 20.6156 1.67014 20.6694 1.35994C20.7232 1.04975 21.0183 0.84199 21.328 0.895708C21.9948 1.01136 22.6616 1.16779 23.3099 1.36042C23.6115 1.45006 23.7834 1.76738 23.6938 2.06909C23.6203 2.31674 23.3936 2.47693 23.148 2.47693ZM17.3049 1.80713C17.0056 1.80713 16.7546 1.57351 16.7367 1.27071C16.7182 0.956474 16.9578 0.686653 17.2718 0.668176C17.6173 0.647716 17.9683 0.637451 18.315 0.637451C18.3157 0.637451 18.3162 0.637451 18.3169 0.637451C18.6462 0.637451 18.9791 0.646689 19.3061 0.665029C19.6202 0.682615 19.8607 0.951547 19.8431 1.26592C19.8256 1.58022 19.5583 1.82123 19.2426 1.80323C18.9366 1.78619 18.625 1.77744 18.3168 1.77744C18.3162 1.77744 18.3157 1.77744 18.315 1.77744C17.9906 1.77744 17.6621 1.78708 17.3388 1.80618C17.3275 1.80686 17.3161 1.80713 17.3049 1.80713Z" fill="#FFCF59"/>
<path d="M5.59746 8.41776C4.19983 8.41776 3.06274 7.27989 3.06274 5.88124C3.06274 4.48259 4.19983 3.34473 5.59746 3.34473C6.99516 3.34473 8.13225 4.48259 8.13225 5.88124C8.13225 7.27989 6.99516 8.41776 5.59746 8.41776Z" fill="#FAD393"/>
<path d="M30.9314 8.41776C29.5338 8.41776 28.3967 7.27989 28.3967 5.88124C28.3967 4.48259 29.5338 3.34473 30.9314 3.34473C32.3291 3.34473 33.4662 4.48259 33.4662 5.88124C33.4662 7.27989 32.3291 8.41776 30.9314 8.41776Z" fill="#FAD393"/>
<path d="M5.59746 29.3252C4.19983 29.3252 3.06274 28.1873 3.06274 26.7887C3.06274 25.3901 4.19983 24.2522 5.59746 24.2522C6.99516 24.2522 8.13225 25.3901 8.13225 26.7887C8.13225 28.1874 6.99516 29.3252 5.59746 29.3252Z" fill="#FAD393"/>
<path d="M30.9314 29.3253C29.5338 29.3253 28.3967 28.1874 28.3967 26.7888C28.3967 25.3902 29.5338 24.2523 30.9314 24.2523C32.3291 24.2523 33.4662 25.3902 33.4662 26.7888C33.4662 28.1875 32.3291 29.3253 30.9314 29.3253Z" fill="#FAD393"/>
<path d="M5.45666 5.88131C5.45666 4.91562 5.99881 4.07447 6.79445 3.64609C6.43776 3.45408 6.03013 3.34473 5.59746 3.34473C4.19983 3.34473 3.06274 4.48259 3.06274 5.88124C3.06274 7.27989 4.19983 8.41776 5.59746 8.41776C6.03013 8.41776 6.43769 8.30847 6.79445 8.11639C5.99881 7.68808 5.45666 6.84693 5.45666 5.88131Z" fill="#EDB769"/>
<path d="M30.7906 5.88131C30.7906 4.91562 31.3328 4.07447 32.1284 3.64609C31.7717 3.45408 31.3641 3.34473 30.9314 3.34473C29.5338 3.34473 28.3967 4.48259 28.3967 5.88124C28.3967 7.27989 29.5338 8.41776 30.9314 8.41776C31.3641 8.41776 31.7717 8.30847 32.1284 8.11639C31.3329 7.68808 30.7906 6.84693 30.7906 5.88131Z" fill="#EDB769"/>
<path d="M5.45666 26.7888C5.45666 25.8231 5.99881 24.9819 6.79445 24.5536C6.43776 24.3615 6.03013 24.2522 5.59746 24.2522C4.19983 24.2522 3.06274 25.3901 3.06274 26.7887C3.06274 28.1874 4.19983 29.3252 5.59746 29.3252C6.03013 29.3252 6.43769 29.2159 6.79445 29.0239C5.99881 28.5956 5.45666 27.7545 5.45666 26.7888Z" fill="#EDB769"/>
<path d="M30.7906 26.7888C30.7906 25.8231 31.3328 24.9819 32.1284 24.5536C31.7717 24.3615 31.3641 24.2522 30.9314 24.2522C29.5338 24.2522 28.3967 25.3901 28.3967 26.7887C28.3967 28.1874 29.5338 29.3252 30.9314 29.3252C31.3641 29.3252 31.7717 29.2159 32.1284 29.0239C31.3329 28.5956 30.7906 27.7545 30.7906 26.7888Z" fill="#EDB769"/>
</g>
<defs>
<clipPath id="clip0_3_1272">
<rect width="35.0125" height="35.0364" fill="white" transform="translate(0.810547 0.623169)"/>
</clipPath>
</defs>
</svg>
