<svg width="31" height="30" viewBox="0 0 31 30" fill="none" xmlns="http://www.w3.org/2000/svg">
<path d="M4.21302 0.221988C4.12024 0.230554 4.03183 0.265437 3.95815 0.32251C3.88447 0.379584 3.82859 0.456457 3.79706 0.544191C3.76552 0.631925 3.75964 0.72687 3.78011 0.817829C3.80058 0.908788 3.84654 0.992031 3.91261 1.05777L7.19985 4.34341V5.41082L6.01736 6.59413H4.95446L1.66723 3.30466C1.59861 3.23641 1.51134 3.19002 1.41641 3.17134C1.32149 3.15267 1.22316 3.16255 1.13383 3.19972C1.0445 3.23689 0.968172 3.29973 0.914463 3.38024C0.860753 3.46076 0.832071 3.55538 0.832031 3.65219V7.57448C0.833067 7.70361 0.88498 7.82712 0.976493 7.91817L3.4247 10.3709C3.47044 10.4162 3.52466 10.452 3.58425 10.4763C3.64383 10.5007 3.70763 10.513 3.77198 10.5126H7.4859L19.9345 22.9707V26.69C19.9347 26.7547 19.9476 26.8186 19.9725 26.8783C19.9975 26.9379 20.034 26.9921 20.0799 27.0375L22.5272 29.4874C22.5727 29.5332 22.6268 29.5695 22.6864 29.5943C22.746 29.6191 22.8099 29.6319 22.8745 29.6319H26.7941C26.8913 29.6319 26.9863 29.6029 27.067 29.5487C27.1477 29.4945 27.2104 29.4174 27.2473 29.3274C27.2841 29.2374 27.2933 29.1384 27.2738 29.0431C27.2542 28.9478 27.2068 28.8605 27.1375 28.7923L23.8551 25.5067V24.4431L25.0366 23.256H26.1005L29.3867 26.5455C29.4554 26.6137 29.5426 26.6601 29.6376 26.6788C29.7325 26.6974 29.8308 26.6875 29.9201 26.6504C30.0095 26.6132 30.0858 26.5504 30.1395 26.4699C30.1932 26.3893 30.2219 26.2947 30.2219 26.1979V22.2795C30.2219 22.2149 30.2092 22.1509 30.1844 22.0913C30.1596 22.0316 30.1233 21.9775 30.0775 21.9319L27.6293 19.4782C27.5367 19.3871 27.4118 19.3365 27.282 19.3375H23.569L11.1195 6.87936V3.16003C11.1184 3.0309 11.0665 2.9074 10.975 2.81635L8.5268 0.362651C8.43425 0.271521 8.30934 0.2209 8.17951 0.221875H4.2599C4.24428 0.221126 4.22864 0.221126 4.21302 0.221875L4.21302 0.221988Z" fill="#33658A"/>
<path d="M28.2094 0.221627C28.1513 0.229038 28.095 0.245494 28.043 0.272171L23.1471 2.7218C22.9812 2.80461 22.8762 2.97408 22.8759 3.15962V4.91814L10.7736 17.0288L13.424 19.6846L25.5264 7.57401H27.2837C27.4691 7.57369 27.6384 7.46859 27.7212 7.30263L30.1728 2.39976C30.2658 2.21093 30.228 1.98373 30.0788 1.8353L28.6107 0.362686C28.5054 0.256903 28.3576 0.205026 28.2094 0.221514V0.221627Z" fill="#DBE9EE"/>
<path d="M10.1328 15.9035C10.005 15.9055 9.88305 15.9574 9.79295 16.0482L1.87416 23.9724C0.545893 25.3015 0.468244 27.4249 1.75122 28.7088C3.03421 29.9927 5.15615 29.9149 6.48442 28.5858L14.4032 20.6616C14.4944 20.5697 14.5456 20.4455 14.5456 20.316C14.5456 20.1865 14.4944 20.0623 14.4032 19.9705L10.4872 16.0482C10.4409 16.0015 10.3856 15.9646 10.3247 15.9398C10.2639 15.9149 10.1986 15.9026 10.1328 15.9035Z" fill="#33B9EF"/>
<path d="M8.32617 17.5193L12.9356 22.1319L14.406 20.6614C14.4973 20.5696 14.5485 20.4453 14.5485 20.3158C14.5485 20.1863 14.4973 20.062 14.406 19.9702L10.4902 16.0479C10.4438 16.0012 10.3885 15.9643 10.3275 15.9394C10.2665 15.9146 10.2011 15.9024 10.1353 15.9034C10.0076 15.9054 9.88572 15.9573 9.79567 16.0479L8.32617 17.5193Z" fill="#2FA9DA"/>
</svg>
