<svg width="39" height="38" viewBox="0 0 39 38" fill="none" xmlns="http://www.w3.org/2000/svg">
<g clip-path="url(#clip0_3_1166)">
<path d="M7.66626 13.3317L8.75496 11.4448L12.5275 13.6244L11.4388 15.5113L7.66626 13.3317Z" fill="#F3F5F9"/>
<path d="M26.5315 24.2321L27.6202 22.3451L31.3927 24.5248L30.304 26.4117L26.5315 24.2321Z" fill="#E1E6F0"/>
<path d="M7.67017 24.5177L11.4427 22.3381L12.5314 24.225L8.75887 26.4046L7.67017 24.5177Z" fill="#F3F5F9"/>
<path d="M26.5317 13.6187L30.3043 11.439L31.393 13.3259L27.6204 15.5056L26.5317 13.6187Z" fill="#E1E6F0"/>
<path d="M18.4417 5.77454H20.6198V10.2065H18.4417V5.77454Z" fill="#F3F5F9"/>
<path d="M18.4417 27.6436H20.6198V32.0755H18.4417V27.6436Z" fill="#F3F5F9"/>
<path d="M17.1007 34.1093L7.67017 28.5876L8.75924 26.6996L18.1898 32.2213L17.1007 34.1093Z" fill="#F3F5F9"/>
<path d="M21.9663 34.1699L20.9241 32.2563L30.5151 26.9602L31.5574 28.8738L21.9663 34.1699Z" fill="#E1E6F0"/>
<path d="M31.51 13.476H33.6882V24.3784H31.51V13.476Z" fill="#E1E6F0"/>
<path d="M30.304 11.1505L20.8735 5.62872L21.9626 3.74072L31.3931 9.26247L30.304 11.1505Z" fill="#E1E6F0"/>
<path d="M8.75924 11.1505L7.67017 9.26247L17.1007 3.74072L18.1898 5.62872L8.75924 11.1505Z" fill="#F3F5F9"/>
<path d="M5.37134 13.476H7.54949V24.3784H5.37134V13.476Z" fill="#F3F5F9"/>
<path d="M4.69366 14.1288C3.13446 13.2273 2.59741 11.2243 3.4972 9.66306C4.39801 8.10178 6.39857 7.56327 7.95986 8.46469H7.96197C9.52116 9.36721 10.0571 11.3712 9.15632 12.9314C8.24832 14.5049 6.24769 15.0263 4.69366 14.1288Z" fill="#66CCFF"/>
<path d="M31.1046 29.3857C29.5433 28.4832 29.0073 26.4792 29.9082 24.919C30.803 23.3683 32.7923 22.8104 34.3708 23.7217C35.93 24.6231 36.4671 26.6261 35.5673 28.1874C34.6647 29.7509 32.662 30.2846 31.1046 29.3857Z" fill="#59ABFF"/>
<path d="M3.49706 28.1885C2.59727 26.6261 3.1344 24.6232 4.69352 23.7217C6.24843 22.8219 8.25022 23.3479 9.15618 24.9201C10.057 26.4793 9.52095 28.4833 7.96183 29.3858C6.41157 30.2787 4.40608 29.7615 3.49706 28.1885Z" fill="#66CCFF"/>
<path d="M29.9082 12.9299C29.0074 11.3708 29.5434 9.36675 31.1026 8.46424H31.1047C32.6628 7.56172 34.6654 8.10133 35.5673 9.66151C36.4671 11.2239 35.93 13.2268 34.3709 14.1282C32.8006 15.0353 30.8065 14.489 29.9082 12.9299Z" fill="#59ABFF"/>
<path d="M19.5315 5.77454H20.6206V10.2065H19.5315V5.77454Z" fill="#E1E6F0"/>
<path d="M19.5315 27.6436H20.6206V32.0755H19.5315V27.6436Z" fill="#E1E6F0"/>
<path d="M19.531 6.86435C17.7294 6.86435 16.2638 5.39774 16.2638 3.59489C16.2638 1.79204 17.7294 0.325439 19.531 0.325439C21.3326 0.325439 22.7982 1.79204 22.7982 3.59489C22.7982 5.39774 21.3326 6.86435 19.531 6.86435Z" fill="#66CCFF"/>
<path d="M19.531 37.5245C17.7294 37.5245 16.2638 36.0579 16.2638 34.255C16.2638 32.4522 17.7294 30.9856 19.531 30.9856C21.3326 30.9856 22.7982 32.4522 22.7982 34.255C22.7982 36.0579 21.3326 37.5245 19.531 37.5245Z" fill="#66CCFF"/>
<path d="M22.7987 34.255C22.7987 32.4522 21.3331 30.9856 19.5315 30.9856V37.5245C21.3331 37.5245 22.7987 36.0579 22.7987 34.255Z" fill="#59ABFF"/>
<path d="M22.7987 3.59489C22.7987 1.79204 21.3331 0.325439 19.5315 0.325439V6.86435C21.3331 6.86435 22.7987 5.39774 22.7987 3.59489Z" fill="#59ABFF"/>
<path d="M29.3343 18.9249C29.3343 22.7611 27.1125 26.0959 23.8889 27.7088L19.5326 25.4638L15.1763 27.7088C11.9527 26.0959 9.73096 22.7611 9.73096 18.9249C9.73096 13.5194 14.1309 9.11658 19.5326 9.11658C24.9344 9.11658 29.3343 13.5194 29.3343 18.9249Z" fill="#59ABFF"/>
<path d="M23.8878 27.7088C27.1114 26.0959 29.3332 22.7611 29.3332 18.9249C29.3332 13.5194 24.9332 9.11658 19.5315 9.11658V25.4638L23.8878 27.7088Z" fill="#4D87FF"/>
<path d="M19.531 20.0149C17.7294 20.0149 16.2638 18.5483 16.2638 16.7454C16.2638 14.9426 17.7294 13.476 19.531 13.476C21.3326 13.476 22.7982 14.9426 22.7982 16.7454C22.7982 18.5483 21.3326 20.0149 19.531 20.0149Z" fill="#F3F5F9"/>
<path d="M19.5284 21.1046C17.1325 21.1046 15.1721 23.0662 15.1721 25.4639V27.7088C16.4789 28.3627 17.9602 28.7333 19.5284 28.7333C21.0966 28.7333 22.5779 28.3627 23.8847 27.7088V25.4639C23.8847 23.0662 21.9243 21.1046 19.5284 21.1046Z" fill="#F3F5F9"/>
<path d="M23.8878 27.7088V25.4639C23.8878 23.0662 21.9274 21.1046 19.5315 21.1046V28.7333C21.0997 28.7333 22.581 28.3627 23.8878 27.7088Z" fill="#E1E6F0"/>
<path d="M22.7987 16.7454C22.7987 14.9426 21.3331 13.476 19.5315 13.476V20.0149C21.3331 20.0149 22.7987 18.5483 22.7987 16.7454Z" fill="#E1E6F0"/>
</g>
<defs>
<clipPath id="clip0_3_1166">
<rect width="37.1737" height="37.1991" fill="white" transform="translate(0.94165 0.325439)"/>
</clipPath>
</defs>
</svg>
