<svg width="37" height="36" viewBox="0 0 37 36" fill="none" xmlns="http://www.w3.org/2000/svg">
<g clip-path="url(#clip0_3_1222)">
<path d="M33.9612 23.6131L9.58408 27.9144C8.07796 28.1801 6.64176 27.1738 6.3762 25.6667L3.69292 10.4388C3.42736 8.93167 4.43304 7.49448 5.93909 7.22874L30.3162 2.92745C31.8223 2.66171 33.2585 3.66807 33.5241 5.17515L36.2074 20.403C36.473 21.9101 35.4673 23.3474 33.9612 23.6131Z" fill="#3555A2"/>
<path d="M30.3175 2.92732L18.1289 5.07797L21.7738 25.7637L33.9624 23.613C35.4685 23.3473 36.4742 21.9101 36.2086 20.403L33.5253 5.1751C33.2598 3.66795 31.8236 2.66158 30.3175 2.92732Z" fill="#1B3555"/>
<path d="M27.8056 32.9652H3.57576C2.04644 32.9652 0.806641 31.7245 0.806641 30.1942V15.1117C0.806641 13.5813 2.04644 12.3407 3.57576 12.3407H27.8056C29.3349 12.3407 30.5747 13.5813 30.5747 15.1117V30.1942C30.5747 31.7245 29.3349 32.9652 27.8056 32.9652Z" fill="#53D8E3"/>
<path d="M27.8044 12.3408H15.6895V32.9653H27.8044C29.3337 32.9653 30.5735 31.7247 30.5735 30.1943V15.1118C30.5735 13.5815 29.3337 12.3408 27.8044 12.3408Z" fill="#18A8C9"/>
<path d="M0.806641 18.7972H30.4408V21.7025H0.806641V18.7972Z" fill="#ECF6FD"/>
<path d="M9.05017 28.3904H4.3392C3.76572 28.3904 3.30078 28.8553 3.30078 29.4288C3.30078 30.0023 3.76572 30.4672 4.3392 30.4672H9.05017C9.62365 30.4672 10.0886 30.0023 10.0886 29.4288C10.0886 28.8553 9.62365 28.3904 9.05017 28.3904Z" fill="#EAF6FF"/>
<path d="M15.627 18.7972H30.444V21.7025H15.627V18.7972Z" fill="#D6E8FE"/>
<path d="M2.83984 17.2242V14.9152C2.83984 14.49 3.18406 14.1455 3.60904 14.1455H5.91644C6.34142 14.1455 6.68545 14.49 6.68545 14.9152V17.2242C6.68545 17.6495 6.34142 17.9939 5.91644 17.9939H3.60904C3.18406 17.9939 2.83984 17.6495 2.83984 17.2242Z" fill="#FDB62F"/>
<path d="M2.83984 15.5886H4.28202V16.5501H2.83984V15.5886Z" fill="#FD7B2F"/>
<path d="M5.24414 15.5886H6.68613V16.5501H5.24414V15.5886Z" fill="#FD7B2F"/>
<path d="M28.6793 30.5082C30.4643 30.5082 31.9114 29.0602 31.9114 27.2739C31.9114 25.4877 30.4643 24.0397 28.6793 24.0397C26.8943 24.0397 25.4473 25.4877 25.4473 27.2739C25.4473 29.0602 26.8943 30.5082 28.6793 30.5082Z" fill="#FFCA5D"/>
<path d="M32.8336 29.5841C34.6186 29.5841 36.0657 28.1361 36.0657 26.3499C36.0657 24.5636 34.6186 23.1156 32.8336 23.1156C31.0486 23.1156 29.6016 24.5636 29.6016 26.3499C29.6016 28.1361 31.0486 29.5841 32.8336 29.5841Z" fill="#F6B545"/>
<path d="M32.8336 23.1156C31.0329 23.1156 29.6016 24.5479 29.6016 26.3499C29.6016 28.1518 31.0329 29.5841 32.8336 29.5841C34.6343 29.5841 36.0657 28.1518 36.0657 26.3499C36.0657 24.5479 34.6343 23.1156 32.8336 23.1156ZM32.8336 28.66C31.5408 28.66 30.525 27.6436 30.525 26.3499C30.525 25.0562 31.5408 24.0397 32.8336 24.0397C34.1264 24.0397 35.1422 25.0562 35.1422 26.3499C35.1422 27.6436 34.1264 28.66 32.8336 28.66Z" fill="#FFCB5B"/>
<path d="M32.8359 29.5379C34.6367 29.5841 36.068 28.1056 36.068 26.3499H36.0218C35.791 26.3499 35.6062 26.5347 35.5601 26.7657C35.4678 27.4125 35.1445 28.0132 34.6828 28.429C34.3135 28.7986 33.8056 29.0297 33.2515 29.1221C33.0206 29.1221 32.8359 29.3069 32.8359 29.5379Z" fill="#F6B545"/>
<path d="M32.8336 23.1618C31.0329 23.1156 29.6016 24.5941 29.6016 26.3499H29.6477C29.8786 26.3499 30.0633 26.165 30.1095 25.934C30.2018 25.2872 30.525 24.6865 30.9867 24.2707C31.3561 23.9011 31.864 23.6701 32.4181 23.5776C32.6489 23.5777 32.8336 23.3928 32.8336 23.1618Z" fill="#FFE27A"/>
<path d="M30.8466 26.6733C30.8466 25.3796 31.8624 24.3631 33.1552 24.3631C33.7093 24.3631 34.2172 24.5479 34.6327 24.9175C34.171 24.3631 33.5708 24.0397 32.832 24.0397C31.5392 24.0397 30.5234 25.0561 30.5234 26.3499C30.5234 27.0891 30.8466 27.6897 31.3545 28.1056C31.0313 27.736 30.8466 27.2277 30.8466 26.6733Z" fill="#F19920"/>
<path d="M34.2195 27.7811C34.1733 27.7811 34.1272 27.7811 34.081 27.7349C33.9886 27.6426 33.9886 27.5041 34.081 27.4117C34.358 27.1347 34.4965 26.7191 34.4965 26.3497C34.4965 26.2112 34.5889 26.1189 34.7274 26.1189C34.8659 26.1189 34.9582 26.2112 34.9582 26.3497C34.9582 26.8576 34.7735 27.3655 34.4503 27.7349C34.358 27.7811 34.2656 27.7811 34.2195 27.7811Z" fill="#FFCB5B"/>
<path d="M32.8348 27.734C32.5577 27.734 32.373 27.5493 32.373 27.2723V25.4255C32.373 25.1484 32.5578 24.9637 32.8348 24.9637C33.1118 24.9637 33.2965 25.1485 33.2965 25.4255V27.2723C33.2965 27.5493 33.1118 27.734 32.8348 27.734Z" fill="#F19920"/>
<path d="M34.5446 29.0758C34.2215 27.9207 33.3903 26.9967 32.3284 26.5809C32.1437 25.5182 31.4511 24.5941 30.5738 24.0397C30.0198 24.6403 29.6504 25.4258 29.6504 26.3036C29.6504 28.1056 31.0817 29.5379 32.8824 29.5379C33.4827 29.5841 34.0367 29.3993 34.5446 29.0758Z" fill="#F19920"/>
<path d="M31.3546 28.1056C31.0314 27.6898 30.8005 27.1815 30.8005 26.6271C30.8005 25.9803 31.0775 25.3796 31.5392 24.9638C31.4469 24.8252 31.3545 24.7328 31.2622 24.6404C30.8005 25.0562 30.5234 25.6569 30.5234 26.3499C30.5235 27.0891 30.8467 27.6898 31.3546 28.1056Z" fill="#E78825"/>
<path d="M32.3672 26.6271V27.2735C32.3672 27.5505 32.5519 27.7352 32.8289 27.7352C33.1059 27.7352 33.2906 27.5505 33.2906 27.2735V27.1812C33.0136 26.9503 32.6904 26.7656 32.3672 26.6271Z" fill="#E78825"/>
<path d="M34.542 29.0758C34.4496 28.7524 34.3573 28.4752 34.1726 28.198C33.8032 28.4752 33.3415 28.66 32.8336 28.66C31.5408 28.66 30.525 27.6435 30.525 26.3498C30.525 25.6567 30.8021 25.0561 31.2638 24.6403C31.0329 24.4093 30.8021 24.2244 30.525 24.0858C29.9709 24.6864 29.6016 25.4719 29.6016 26.3498C29.6016 28.1517 31.0329 29.584 32.8336 29.584C33.48 29.5841 34.0341 29.3993 34.542 29.0758Z" fill="#F6B545"/>
<path d="M34.4058 28.66C34.0826 28.8909 33.6671 29.0294 33.2515 29.1217C33.0206 29.1679 32.8359 29.3526 32.8359 29.5834C33.4823 29.5834 34.0364 29.3987 34.5443 29.0756C34.4982 28.937 34.452 28.7986 34.4058 28.66Z" fill="#F19920"/>
<path d="M30.525 24.0859C29.9709 24.6862 29.6016 25.4711 29.6016 26.3484H29.6477C29.8786 26.3484 30.0633 26.1636 30.1095 25.9328C30.2018 25.2864 30.525 24.7323 30.9405 24.3168C30.8021 24.2706 30.6635 24.1783 30.525 24.0859Z" fill="#FFCB5B"/>
<path d="M28.6793 30.5082C30.4643 30.5082 31.9114 29.0602 31.9114 27.2739C31.9114 25.4877 30.4643 24.0397 28.6793 24.0397C26.8943 24.0397 25.4473 25.4877 25.4473 27.2739C25.4473 29.0602 26.8943 30.5082 28.6793 30.5082Z" fill="#F6B545"/>
<path d="M28.2168 29.5841C28.2168 29.9075 28.263 30.1847 28.3553 30.5082C28.4476 30.5082 28.5862 30.5082 28.6785 30.5082C30.4792 30.5082 31.9106 29.0759 31.9106 27.2739C31.9106 26.9505 31.8644 26.6733 31.772 26.3499C31.6797 26.3499 31.5412 26.3499 31.4489 26.3499C29.6481 26.3499 28.2168 27.7822 28.2168 29.5841Z" fill="#F19920"/>
<path d="M28.6793 24.0397C26.8786 24.0397 25.4473 25.472 25.4473 27.2739C25.4473 29.0759 26.8786 30.5082 28.6793 30.5082C30.48 30.5082 31.9114 29.0758 31.9114 27.2739C31.9114 25.472 30.48 24.0397 28.6793 24.0397ZM28.6793 29.5841C27.3865 29.5841 26.3707 28.5676 26.3707 27.2739C26.3707 25.9802 27.3865 24.9637 28.6793 24.9637C29.9721 24.9637 30.9879 25.9802 30.9879 27.2739C30.9879 28.5676 29.9721 29.5841 28.6793 29.5841Z" fill="#FFCB5B"/>
<path d="M28.6797 30.4619C30.4804 30.5081 31.9117 29.0296 31.9117 27.2739H31.8656C31.6347 27.2739 31.45 27.4588 31.4039 27.6898C31.3115 28.3366 30.9883 28.9373 30.5266 29.3531C30.1572 29.7227 29.6493 29.9537 29.0952 30.0462C28.8644 30.0461 28.6797 30.2309 28.6797 30.4619Z" fill="#F6B545"/>
<path d="M28.6793 24.0859C26.8786 24.0397 25.4473 25.5182 25.4473 27.2739H25.4935C25.7243 27.2739 25.909 27.0891 25.9552 26.8581C26.0475 26.2112 26.3707 25.6106 26.8324 25.1948C27.2018 24.8251 27.7097 24.5941 28.2638 24.5017C28.4947 24.5017 28.6793 24.3169 28.6793 24.0859Z" fill="#FFE27A"/>
<path d="M26.6925 27.5973C26.6925 26.3036 27.7083 25.2872 29.0011 25.2872C29.5552 25.2872 30.0631 25.472 30.4786 25.8416C30.0169 25.2872 29.4166 24.9637 28.6779 24.9637C27.385 24.9637 26.3693 25.9802 26.3693 27.2739C26.3693 28.0132 26.6924 28.6138 27.2003 29.0296C26.8772 28.66 26.6925 28.1518 26.6925 27.5973Z" fill="#F19920"/>
<path d="M30.0652 28.705C30.019 28.705 29.9729 28.705 29.9267 28.6589C29.8343 28.5665 29.8343 28.428 29.9267 28.3357C30.2037 28.0586 30.3422 27.6431 30.3422 27.2737C30.3422 27.1352 30.4346 27.0428 30.5731 27.0428C30.7116 27.0428 30.8039 27.1352 30.8039 27.2737C30.8039 27.7816 30.6192 28.2895 30.296 28.6589C30.2037 28.705 30.1113 28.705 30.0652 28.705Z" fill="#FFCB5B"/>
<path d="M28.6785 28.6581C28.4015 28.6581 28.2168 28.4734 28.2168 28.1964V26.3495C28.2168 26.0725 28.4015 25.8878 28.6785 25.8878C28.9555 25.8878 29.1402 26.0725 29.1402 26.3495V28.1964C29.1402 28.4734 28.9555 28.6581 28.6785 28.6581Z" fill="#F19920"/>
<path d="M30.8025 26.3961C30.8949 26.6733 30.9872 26.9505 30.9872 27.2739C30.9872 28.5676 29.9714 29.5841 28.6786 29.5841C28.5401 29.5841 28.3554 29.5841 28.2169 29.5379V29.5841C28.2169 29.9075 28.2631 30.1847 28.3554 30.5082C28.4478 30.5082 28.5863 30.5082 28.6786 30.5082C30.4793 30.5082 31.9107 29.0759 31.9107 27.2739C31.9107 26.9505 31.8645 26.6733 31.7722 26.3499C31.6798 26.3499 31.5413 26.3499 31.449 26.3499C31.218 26.3499 31.0334 26.3499 30.8025 26.3961Z" fill="#F6B545"/>
<path d="M30.986 33.2802C32.771 33.2802 34.218 31.8321 34.218 30.0459C34.218 28.2597 32.771 26.8116 30.986 26.8116C29.2009 26.8116 27.7539 28.2597 27.7539 30.0459C27.7539 31.8321 29.2009 33.2802 30.986 33.2802Z" fill="#F6B545"/>
<path d="M30.9899 26.8119C29.1892 26.8119 27.7578 28.2442 27.7578 30.0461C27.7578 31.8481 29.1892 33.2804 30.9899 33.2804C32.7906 33.2804 34.2219 31.8481 34.2219 30.0461C34.2219 28.2442 32.7906 26.8119 30.9899 26.8119ZM30.9899 32.3563C29.697 32.3563 28.6813 31.3399 28.6813 30.0461C28.6813 28.7524 29.697 27.736 30.9899 27.736C32.2827 27.736 33.2985 28.7524 33.2985 30.0461C33.2985 31.3399 32.2827 32.3563 30.9899 32.3563Z" fill="#FFCB5B"/>
<path d="M30.9883 33.2342C32.789 33.2804 34.2203 31.8019 34.2203 30.0461H34.1741C33.9433 30.0461 33.7586 30.231 33.7124 30.462C33.6201 31.1088 33.2969 31.7095 32.8352 32.1253C32.4658 32.4949 31.9579 32.7259 31.4038 32.8184C31.173 32.8183 30.9883 33.0031 30.9883 33.2342Z" fill="#F6B545"/>
<path d="M30.9899 26.8581C29.1892 26.8119 27.7578 28.2904 27.7578 30.0462H27.804C28.0349 30.0462 28.2196 29.8613 28.2657 29.6303C28.358 28.9835 28.6813 28.3828 29.143 27.967C29.5123 27.5974 30.0202 27.3663 30.5743 27.2739C30.8052 27.274 30.9899 27.0891 30.9899 26.8581Z" fill="#FFE27A"/>
<path d="M29.0029 30.3695C29.0029 29.0758 30.0187 28.0594 31.3115 28.0594C31.8656 28.0594 32.3735 28.2442 32.789 28.6138C32.3273 28.0594 31.727 27.736 30.9883 27.736C29.6955 27.736 28.6797 28.7524 28.6797 30.0461C28.6797 30.7854 29.0029 31.386 29.5108 31.8019C29.1876 31.4322 29.0029 30.924 29.0029 30.3695Z" fill="#F19920"/>
<path d="M32.3718 31.4773C32.3256 31.4773 32.2795 31.4773 32.2333 31.4311C32.141 31.3387 32.141 31.2002 32.2333 31.1079C32.5104 30.8308 32.6489 30.4153 32.6489 30.0459C32.6489 29.9074 32.7412 29.8151 32.8797 29.8151C33.0182 29.8151 33.1106 29.9074 33.1106 30.0459C33.1106 30.5538 32.9259 31.0617 32.6027 31.4311C32.5104 31.4773 32.418 31.4773 32.3718 31.4773Z" fill="#FFCB5B"/>
<path d="M30.9851 31.4303C30.7081 31.4303 30.5234 31.2456 30.5234 30.9686V29.1217C30.5234 28.8447 30.7081 28.66 30.9851 28.66C31.2622 28.66 31.4468 28.8447 31.4468 29.1217V30.9686C31.4469 31.2456 31.2622 31.4303 30.9851 31.4303Z" fill="#F19920"/>
</g>
<defs>
<clipPath id="clip0_3_1222">
<rect width="35.4447" height="35.4689" fill="white" transform="translate(0.806641 0.190552)"/>
</clipPath>
</defs>
</svg>
